<svg width="1400" height="1512" viewBox="0 0 1400 1512" fill="none" xmlns="http://www.w3.org/2000/svg">
<rect x="-4" width="1419" height="1512" fill="#FFEFB4"/>
<mask id="mask0_1129_8" style="mask-type:alpha" maskUnits="userSpaceOnUse" x="1059" y="436" width="394" height="607">
<rect x="1453" y="436" width="607" height="393" transform="rotate(90 1453 436)" fill="#D9D9D9"/>
</mask>
<g mask="url(#mask0_1129_8)">
<g opacity="0.7">
<path d="M1269.35 744.072C1269.35 744.072 1250.69 744.779 1243.62 758.009C1236.54 771.239 1235.49 781.175 1228.25 786.79C1237.4 787.066 1244.1 794.472 1257.62 800.993C1271.14 807.514 1286.62 797.091 1286.62 797.091" stroke="#F8DA78" stroke-width="2" stroke-miterlimit="10"/>
<path d="M1286.53 691.031C1286.53 691.031 1271.03 680.641 1257.53 687.184C1244.02 693.727 1237.34 701.155 1228.19 701.442C1235.43 707.046 1236.5 716.982 1243.59 730.19C1250.7 743.409 1269.35 744.072 1269.35 744.072" stroke="#F8DA78" stroke-width="2" stroke-miterlimit="10"/>
<path d="M1387.52 829.774C1387.52 829.774 1393.95 847.292 1408.72 849.945C1423.48 852.586 1433.26 850.508 1440.83 855.659C1438.27 846.872 1443.24 838.207 1445.27 823.341C1447.29 808.475 1432.59 796.97 1432.59 796.97" stroke="#F8DA78" stroke-width="2" stroke-miterlimit="10"/>
<path d="M1286.63 797.091C1286.63 797.091 1271.95 808.619 1274.01 823.485C1276.05 838.351 1281.05 847.005 1278.5 855.791C1286.06 850.63 1295.84 852.686 1310.6 850.022C1325.37 847.347 1331.77 829.818 1331.77 829.818" stroke="#F8DA78" stroke-width="2" stroke-miterlimit="10"/>
<path d="M1331.61 658.216C1331.61 658.216 1325.18 640.697 1310.42 638.045C1295.65 635.403 1285.87 637.481 1278.3 632.33C1280.86 641.117 1275.89 649.782 1273.87 664.648C1271.84 679.514 1286.54 691.02 1286.54 691.02" stroke="#F8DA78" stroke-width="2" stroke-miterlimit="10"/>
<path d="M1331.76 829.818C1331.76 829.818 1326.66 847.778 1337.05 858.599C1347.44 869.419 1356.57 873.487 1359.68 882.097C1362.76 873.476 1371.89 869.397 1382.26 858.555C1392.63 847.712 1387.51 829.774 1387.51 829.774" stroke="#F8DA78" stroke-width="2" stroke-miterlimit="10"/>
<path d="M1387.36 658.171C1387.36 658.171 1392.46 640.211 1382.07 629.39C1371.68 618.57 1362.55 614.503 1359.44 605.893C1356.36 614.514 1347.23 618.592 1336.86 629.435C1326.49 640.277 1331.61 658.216 1331.61 658.216" stroke="#F8DA78" stroke-width="2" stroke-miterlimit="10"/>
<path d="M1432.5 690.898C1432.5 690.898 1447.18 679.359 1445.12 664.504C1443.08 649.639 1438.08 640.985 1440.63 632.198C1433.08 637.359 1423.29 635.304 1408.53 637.967C1393.76 640.642 1387.36 658.171 1387.36 658.171" stroke="#F8DA78" stroke-width="2" stroke-miterlimit="10"/>
<path d="M1220.66 744.116C1220.66 744.116 1191.95 745.199 1181.05 765.569C1170.15 785.939 1168.54 801.236 1157.4 809.879C1171.49 810.299 1181.8 821.716 1202.61 831.752C1223.41 841.788 1247.26 825.739 1247.26 825.739" stroke="#F8DA78" stroke-width="2" stroke-miterlimit="10"/>
<path d="M1247.12 662.46C1247.12 662.46 1223.25 646.456 1202.46 656.536C1181.67 666.604 1171.37 678.044 1157.29 678.486C1168.44 687.107 1170.09 702.404 1181.02 722.752C1191.95 743.099 1220.67 744.127 1220.67 744.127" stroke="#F8DA78" stroke-width="2" stroke-miterlimit="10"/>
<path d="M1247.28 825.74C1247.28 825.74 1224.68 843.501 1227.83 866.38C1231 889.259 1238.68 902.588 1234.75 916.128C1246.4 908.181 1261.46 911.353 1284.19 907.241C1306.93 903.13 1316.77 876.139 1316.77 876.139" stroke="#F8DA78" stroke-width="2" stroke-miterlimit="10"/>
<path d="M1316.53 611.927C1316.53 611.927 1306.63 584.948 1283.89 580.881C1261.16 576.813 1246.1 580.007 1234.44 572.083C1238.4 585.611 1230.73 598.952 1227.61 621.841C1224.5 644.731 1247.12 662.449 1247.12 662.449" stroke="#F8DA78" stroke-width="2" stroke-miterlimit="10"/>
<path d="M1316.76 876.128C1316.76 876.128 1308.91 903.771 1324.92 920.438C1340.92 937.094 1354.98 943.361 1359.75 956.624C1364.51 943.35 1378.55 937.072 1394.53 920.383C1410.5 903.693 1402.6 876.062 1402.6 876.062" stroke="#F8DA78" stroke-width="2" stroke-miterlimit="10"/>
<path d="M1402.37 611.85C1402.37 611.85 1410.22 584.207 1394.22 567.54C1378.21 550.884 1364.15 544.617 1359.38 531.354C1354.63 544.628 1340.58 550.917 1324.61 567.595C1308.64 584.285 1316.53 611.916 1316.53 611.916" stroke="#F8DA78" stroke-width="2" stroke-miterlimit="10"/>
<path d="M1214.01 744.116C1214.01 744.116 1183.91 745.255 1172.49 766.597C1161.08 787.94 1159.39 803.977 1147.71 813.029C1162.48 813.471 1173.29 825.43 1195.1 835.941C1216.9 846.463 1241.88 829.641 1241.88 829.641" stroke="#F8DA78" stroke-width="2" stroke-miterlimit="10"/>
<path d="M1241.73 658.547C1241.73 658.547 1216.71 641.78 1194.93 652.335C1173.15 662.891 1162.36 674.872 1147.59 675.336C1159.28 684.366 1161 700.403 1172.46 721.724C1183.92 743.044 1214.02 744.127 1214.02 744.127" stroke="#F8DA78" stroke-width="2" stroke-miterlimit="10"/>
<path d="M1241.88 829.663C1241.88 829.663 1218.21 848.276 1221.51 872.249C1224.82 896.233 1232.87 910.192 1228.76 924.384C1240.96 916.061 1256.75 919.377 1280.56 915.066C1304.38 910.756 1314.72 882.472 1314.72 882.472" stroke="#F8DA78" stroke-width="2" stroke-miterlimit="10"/>
<path d="M1314.46 605.594C1314.46 605.594 1304.08 577.322 1280.25 573.055C1256.43 568.789 1240.65 572.138 1228.44 563.837C1232.59 578.018 1224.55 591.999 1221.29 615.984C1218.03 639.968 1241.74 658.536 1241.74 658.536" stroke="#F8DA78" stroke-width="2" stroke-miterlimit="10"/>
<path d="M1314.7 882.472C1314.7 882.472 1306.48 911.441 1323.26 928.904C1340.02 946.367 1354.76 952.922 1359.76 966.826C1364.75 952.922 1379.46 946.334 1396.2 928.849C1412.95 911.364 1404.67 882.406 1404.67 882.406" stroke="#F8DA78" stroke-width="2" stroke-miterlimit="10"/>
<path d="M1404.43 605.517C1404.43 605.517 1412.65 576.548 1395.87 559.085C1379.11 541.622 1364.37 535.068 1359.37 521.163C1354.38 535.068 1339.67 541.655 1322.93 559.14C1306.18 576.625 1314.46 605.583 1314.46 605.583" stroke="#F8DA78" stroke-width="2" stroke-miterlimit="10"/>
<path d="M1308.4 817.997C1349.27 846.255 1405.31 836.031 1433.57 795.16C1461.82 754.29 1451.6 698.25 1410.73 669.993C1369.86 641.735 1313.82 651.959 1285.56 692.83C1257.31 733.7 1267.53 789.74 1308.4 817.997Z" stroke="#F8DA78" stroke-width="2" stroke-miterlimit="10"/>
<path d="M1282.38 748.19C1284.7 790.813 1321.14 823.483 1363.76 821.16C1406.38 818.836 1439.05 782.4 1436.73 739.777C1434.4 697.153 1397.97 664.484 1355.35 666.807C1312.72 669.131 1280.06 705.567 1282.38 748.19Z" stroke="#F8DA78" stroke-width="2" stroke-miterlimit="10"/>
<path d="M1286.53 691.031C1286.53 691.031 1268.66 667.997 1250.53 676.784C1232.41 685.571 1219.43 694.247 1207.15 694.634C1216.88 702.15 1222.3 716.783 1231.83 734.523C1241.37 752.262 1269.35 744.083 1269.35 744.083" stroke="#F8DA78" stroke-width="2" stroke-miterlimit="10"/>
<path d="M1387.52 829.774C1387.52 829.774 1388.43 858.919 1408.26 862.467C1428.09 866.015 1443.68 866.623 1453.85 873.531C1450.4 861.738 1454.62 846.706 1457.33 826.745C1460.05 806.784 1432.6 796.959 1432.6 796.959" stroke="#F8DA78" stroke-width="2" stroke-miterlimit="10"/>
<path d="M1331.6 658.215C1331.6 658.215 1330.69 629.07 1310.86 625.522C1291.03 621.974 1275.44 621.366 1265.27 614.458C1268.72 626.251 1264.51 641.283 1261.79 661.244C1259.07 681.205 1286.52 691.031 1286.52 691.031" stroke="#F8DA78" stroke-width="2" stroke-miterlimit="10"/>
<path d="M1331.77 829.818C1331.77 829.818 1315.39 853.935 1329.34 868.458C1343.29 882.981 1355.55 892.641 1359.72 904.202C1363.87 892.63 1376.1 882.948 1390.04 868.403C1403.96 853.846 1387.53 829.763 1387.53 829.763" stroke="#F8DA78" stroke-width="2" stroke-miterlimit="10"/>
<path d="M1387.36 658.16C1387.36 658.16 1403.74 634.044 1389.79 619.52C1375.84 604.997 1363.58 595.337 1359.41 583.776C1355.27 595.348 1343.03 605.03 1329.1 619.576C1315.17 634.132 1331.59 658.215 1331.59 658.215" stroke="#F8DA78" stroke-width="2" stroke-miterlimit="10"/>
<path d="M1286.63 797.091C1286.63 797.091 1259.2 806.972 1261.95 826.922C1264.7 846.872 1268.95 861.892 1265.52 873.697C1275.68 866.767 1291.26 866.137 1311.09 862.556C1330.91 858.975 1331.77 829.829 1331.77 829.829" stroke="#F8DA78" stroke-width="2" stroke-miterlimit="10"/>
<path d="M1432.5 690.898C1432.5 690.898 1459.93 681.017 1457.18 661.067C1454.43 641.117 1450.18 626.097 1453.61 614.293C1443.45 621.223 1427.87 621.853 1408.04 625.434C1388.22 629.015 1387.36 658.16 1387.36 658.16" stroke="#F8DA78" stroke-width="2" stroke-miterlimit="10"/>
<path d="M1269.35 744.083C1269.35 744.083 1241.35 735.948 1231.84 753.71C1222.34 771.471 1216.95 786.116 1207.24 793.643C1219.53 794.007 1232.52 802.662 1250.66 811.404C1268.79 820.158 1286.63 797.08 1286.63 797.08" stroke="#F8DA78" stroke-width="2" stroke-miterlimit="10"/>
<path d="M1211.2 746.913C1216.06 754.008 1232.56 744.116 1232.56 744.116C1232.56 744.116 1216.05 734.257 1211.2 741.364C1210.08 743 1210.08 745.277 1211.2 746.913Z" stroke="#F8DA78" stroke-width="2" stroke-miterlimit="10"/>
<path d="M1230.14 747.951C1230.14 747.951 1225.67 748.504 1222.4 750.593C1220.43 751.853 1218.95 754.086 1218.99 755.898C1219.09 760.165 1225.18 759.734 1226.03 755.788C1226.64 752.98 1227.56 750.383 1230.16 747.963L1230.14 747.951Z" stroke="#F8DA78" stroke-width="2" stroke-miterlimit="10"/>
<path d="M1230.13 740.292C1230.13 740.292 1225.66 739.75 1222.37 737.662C1220.4 736.413 1218.92 734.169 1218.96 732.367C1219.05 728.101 1225.15 728.521 1226 732.467C1226.61 735.274 1227.54 737.872 1230.13 740.292Z" stroke="#F8DA78" stroke-width="2" stroke-miterlimit="10"/>
<path d="M1237.82 659.155C1237.59 667.754 1256.75 669.445 1256.75 669.445C1256.75 669.445 1249.17 651.761 1241.08 654.657C1239.22 655.32 1237.88 657.165 1237.82 659.155Z" stroke="#F8DA78" stroke-width="2" stroke-miterlimit="10"/>
<path d="M1252.53 671.125C1252.53 671.125 1248.59 668.936 1244.71 668.704C1242.38 668.561 1239.86 669.5 1238.83 670.992C1236.4 674.507 1241.58 677.734 1244.6 675.038C1246.73 673.125 1249.01 671.556 1252.53 671.125Z" stroke="#F8DA78" stroke-width="2" stroke-miterlimit="10"/>
<path d="M1257.03 664.924C1257.03 664.924 1253.73 661.852 1252.3 658.238C1251.44 656.06 1251.56 653.385 1252.65 651.938C1255.23 648.533 1259.91 652.457 1258.28 656.16C1257.13 658.779 1256.35 661.432 1257.03 664.913L1257.03 664.924Z" stroke="#F8DA78" stroke-width="2" stroke-miterlimit="10"/>
<path d="M1402.64 601.991C1394.39 604.423 1398.69 623.168 1398.69 623.168C1398.69 623.168 1413.17 610.502 1407.92 603.704C1406.7 602.135 1404.54 601.427 1402.64 601.991Z" stroke="#F8DA78" stroke-width="2" stroke-miterlimit="10"/>
<path d="M1395.8 619.686C1395.8 619.686 1396.66 615.254 1395.68 611.496C1395.1 609.23 1393.43 607.13 1391.69 606.611C1387.61 605.384 1386.14 611.319 1389.63 613.342C1392.1 614.779 1394.3 616.459 1395.8 619.675L1395.8 619.686Z" stroke="#F8DA78" stroke-width="2" stroke-miterlimit="10"/>
<path d="M1403.08 622.051C1403.08 622.051 1404.98 617.962 1407.97 615.486C1409.78 613.994 1412.36 613.276 1414.06 613.873C1418.1 615.276 1415.81 620.946 1411.79 620.537C1408.94 620.25 1406.17 620.327 1403.07 622.051L1403.08 622.051Z" stroke="#F8DA78" stroke-width="2" stroke-miterlimit="10"/>
<path d="M1316.48 885.998C1324.73 883.567 1320.43 864.821 1320.43 864.821C1320.43 864.821 1305.95 877.488 1311.2 884.285C1312.42 885.854 1314.58 886.562 1316.48 885.998Z" stroke="#F8DA78" stroke-width="2" stroke-miterlimit="10"/>
<path d="M1323.32 868.303C1323.32 868.303 1322.46 872.735 1323.44 876.493C1324.02 878.759 1325.69 880.859 1327.43 881.378C1331.51 882.605 1332.98 876.67 1329.49 874.647C1327.02 873.21 1324.82 871.53 1323.31 868.314L1323.32 868.303Z" stroke="#F8DA78" stroke-width="2" stroke-miterlimit="10"/>
<path d="M1316.04 865.949C1316.04 865.949 1314.14 870.038 1311.15 872.514C1309.34 874.006 1306.76 874.725 1305.06 874.128C1301.02 872.724 1303.31 867.054 1307.33 867.463C1310.18 867.75 1312.95 867.673 1316.05 865.949L1316.04 865.949Z" stroke="#F8DA78" stroke-width="2" stroke-miterlimit="10"/>
<path d="M1310.95 603.793C1305.71 610.612 1320.21 623.245 1320.21 623.245C1320.21 623.245 1324.47 604.489 1316.23 602.068C1314.33 601.516 1312.16 602.212 1310.95 603.793Z" stroke="#F8DA78" stroke-width="2" stroke-miterlimit="10"/>
<path d="M1315.81 622.129C1315.81 622.129 1313.9 618.039 1310.9 615.575C1309.1 614.083 1306.51 613.375 1304.8 613.972C1300.77 615.387 1303.06 621.046 1307.09 620.637C1309.94 620.349 1312.7 620.416 1315.81 622.129Z" stroke="#F8DA78" stroke-width="2" stroke-miterlimit="10"/>
<path d="M1323.09 619.764C1323.09 619.764 1322.23 615.332 1323.19 611.574C1323.78 609.308 1325.45 607.208 1327.17 606.688C1331.26 605.451 1332.74 611.386 1329.25 613.419C1326.77 614.867 1324.58 616.547 1323.09 619.764Z" stroke="#F8DA78" stroke-width="2" stroke-miterlimit="10"/>
<path d="M1408.18 884.197C1413.42 877.377 1398.92 864.744 1398.92 864.744C1398.92 864.744 1394.66 883.5 1402.9 885.921C1404.8 886.474 1406.97 885.777 1408.18 884.197Z" stroke="#F8DA78" stroke-width="2" stroke-miterlimit="10"/>
<path d="M1396.03 868.237C1396.03 868.237 1396.89 872.669 1395.93 876.427C1395.34 878.693 1393.67 880.793 1391.95 881.312C1387.86 882.55 1386.38 876.615 1389.87 874.581C1392.35 873.133 1394.53 871.453 1396.03 868.237Z" stroke="#F8DA78" stroke-width="2" stroke-miterlimit="10"/>
<path d="M1241.25 833.565C1249.35 836.438 1256.89 818.743 1256.89 818.743C1256.89 818.743 1237.74 820.479 1237.99 829.066C1238.05 831.045 1239.39 832.891 1241.26 833.554L1241.25 833.565Z" stroke="#F8DA78" stroke-width="2" stroke-miterlimit="10"/>
<path d="M1257.18 823.264C1257.18 823.264 1253.88 826.347 1252.46 829.951C1251.6 832.128 1251.72 834.814 1252.81 836.239C1255.4 839.633 1260.07 835.698 1258.44 832.006C1257.28 829.387 1256.49 826.734 1257.17 823.253L1257.18 823.264Z" stroke="#F8DA78" stroke-width="2" stroke-miterlimit="10"/>
<path d="M1252.68 817.074C1252.68 817.074 1248.73 819.263 1244.86 819.506C1242.53 819.65 1240.01 818.71 1238.99 817.229C1236.55 813.725 1241.73 810.476 1244.74 813.173C1246.89 815.085 1249.16 816.643 1252.68 817.074Z" stroke="#F8DA78" stroke-width="2" stroke-miterlimit="10"/>
<path d="M1167.94 681.934L1202.96 693.274" stroke="#F8DA78" stroke-width="2" stroke-miterlimit="10"/>
<path d="M1168.06 807.061L1203.07 795.654" stroke="#F8DA78" stroke-width="2" stroke-miterlimit="10"/>
<path d="M1241.7 908.225L1263.31 878.427" stroke="#F8DA78" stroke-width="2" stroke-miterlimit="10"/>
<path d="M1360.41 578.659L1360.36 541.843" stroke="#F8DA78" stroke-width="2" stroke-miterlimit="10"/>
<path d="M1360.75 946.787L1360.71 909.971" stroke="#F8DA78" stroke-width="2" stroke-miterlimit="10"/>
<path d="M1263.07 610.391L1241.39 580.626" stroke="#F8DA78" stroke-width="2" stroke-miterlimit="10"/>
<path d="M1186.19 657.375C1172.03 647.108 1168.88 627.312 1179.14 613.154C1189.4 598.996 1209.2 595.846 1223.36 606.103" stroke="#F8DA78" stroke-width="2" stroke-miterlimit="10"/>
<path d="M1193.29 652.523C1182.76 644.886 1180.41 630.153 1188.06 619.62C1195.7 609.087 1210.43 606.732 1220.96 614.381" stroke="#F8DA78" stroke-width="2" stroke-miterlimit="10"/>
<path d="M1201.32 649.893C1193.84 644.466 1192.17 634.01 1197.59 626.528C1203.02 619.045 1213.48 617.376 1220.96 622.803" stroke="#F8DA78" stroke-width="2" stroke-miterlimit="10"/>
<path d="M1209.06 648.92C1203.96 645.229 1202.83 638.111 1206.52 633.016C1210.22 627.92 1217.33 626.793 1222.43 630.484" stroke="#F8DA78" stroke-width="2" stroke-miterlimit="10"/>
<path d="M1215.13 647.981C1211.97 645.693 1211.27 641.272 1213.57 638.111C1215.85 634.95 1220.27 634.242 1223.43 636.541" stroke="#F8DA78" stroke-width="2" stroke-miterlimit="10"/>
<path d="M1220.54 650.114C1218.03 648.29 1217.47 644.776 1219.29 642.267C1221.11 639.758 1224.63 639.194 1227.14 641.018" stroke="#F8DA78" stroke-width="2" stroke-miterlimit="10"/>
<path d="M1224.88 649.793C1223.62 648.887 1223.35 647.13 1224.25 645.87C1225.16 644.61 1226.92 644.333 1228.18 645.24" stroke="#F8DA78" stroke-width="2" stroke-miterlimit="10"/>
<path d="M1448.95 915.995C1454.36 932.618 1445.28 950.49 1428.66 955.917C1412.03 961.333 1394.16 952.247 1388.74 935.624" stroke="#F8DA78" stroke-width="2" stroke-miterlimit="10"/>
<path d="M1440.35 915.752C1444.38 928.12 1437.62 941.427 1425.25 945.45C1412.89 949.484 1399.58 942.72 1395.56 930.352" stroke="#F8DA78" stroke-width="2" stroke-miterlimit="10"/>
<path d="M1432.33 913.165C1435.19 921.952 1430.39 931.391 1421.6 934.254C1412.82 937.116 1403.38 932.32 1400.52 923.533" stroke="#F8DA78" stroke-width="2" stroke-miterlimit="10"/>
<path d="M1270.22 572.005C1264.81 555.382 1273.89 537.51 1290.51 532.084C1307.14 526.668 1325.01 535.753 1330.43 552.376" stroke="#F8DA78" stroke-width="2" stroke-miterlimit="10"/>
<path d="M1278.82 572.249C1274.79 559.881 1281.55 546.573 1293.92 542.55C1306.29 538.516 1319.59 545.28 1323.62 557.648" stroke="#F8DA78" stroke-width="2" stroke-miterlimit="10"/>
<path d="M1286.86 574.835C1283.99 566.048 1288.79 556.609 1297.58 553.747C1306.36 550.884 1315.8 555.681 1318.66 564.468" stroke="#F8DA78" stroke-width="2" stroke-miterlimit="10"/>
<path d="M1293.7 578.593C1291.75 572.613 1295.01 566.181 1300.99 564.235C1306.97 562.29 1313.4 565.551 1315.35 571.53" stroke="#F8DA78" stroke-width="2" stroke-miterlimit="10"/>
<path d="M1299.16 581.411C1297.95 577.698 1299.97 573.708 1303.69 572.503C1307.4 571.298 1311.39 573.321 1312.6 577.034" stroke="#F8DA78" stroke-width="2" stroke-miterlimit="10"/>
<path d="M1302.27 586.308C1301.31 583.356 1302.93 580.184 1305.88 579.223C1308.83 578.261 1312 579.875 1312.96 582.826" stroke="#F8DA78" stroke-width="2" stroke-miterlimit="10"/>
<path d="M1305.99 588.617C1305.5 587.136 1306.31 585.556 1307.79 585.07C1309.27 584.583 1310.85 585.39 1311.34 586.871" stroke="#F8DA78" stroke-width="2" stroke-miterlimit="10"/>
<path d="M1330.79 935.68C1325.4 952.314 1307.54 961.432 1290.91 956.049C1274.28 950.656 1265.16 932.806 1270.54 916.172" stroke="#F8DA78" stroke-width="2" stroke-miterlimit="10"/>
<path d="M1323.98 930.419C1319.97 942.797 1306.68 949.584 1294.3 945.572C1281.92 941.56 1275.14 928.274 1279.15 915.895" stroke="#F8DA78" stroke-width="2" stroke-miterlimit="10"/>
<path d="M1319 923.61C1316.15 932.397 1306.72 937.216 1297.94 934.375C1289.15 931.524 1284.33 922.096 1287.17 913.309" stroke="#F8DA78" stroke-width="2" stroke-miterlimit="10"/>
<path d="M1315.68 916.548C1313.74 922.527 1307.32 925.81 1301.33 923.875C1295.34 921.941 1292.07 915.52 1294 909.529" stroke="#F8DA78" stroke-width="2" stroke-miterlimit="10"/>
<path d="M1312.91 911.054C1311.71 914.768 1307.73 916.802 1304.02 915.597C1300.3 914.392 1298.27 910.413 1299.47 906.7" stroke="#F8DA78" stroke-width="2" stroke-miterlimit="10"/>
<path d="M1313.27 905.263C1312.31 908.214 1309.15 909.839 1306.18 908.877C1303.23 907.915 1301.61 904.754 1302.57 901.792" stroke="#F8DA78" stroke-width="2" stroke-miterlimit="10"/>
<path d="M1311.62 901.218C1311.15 902.699 1309.56 903.506 1308.09 903.03C1306.62 902.555 1305.8 900.963 1306.27 899.493" stroke="#F8DA78" stroke-width="2" stroke-miterlimit="10"/>
<path d="M1388.38 552.321C1393.76 535.687 1411.62 526.568 1428.26 531.951C1444.89 537.345 1454.01 555.194 1448.63 571.829" stroke="#F8DA78" stroke-width="2" stroke-miterlimit="10"/>
<path d="M1395.2 557.582C1399.21 545.203 1412.5 538.417 1424.88 542.429C1437.25 546.441 1444.04 559.726 1440.03 572.105" stroke="#F8DA78" stroke-width="2" stroke-miterlimit="10"/>
<path d="M1400.17 564.39C1403.03 555.603 1412.45 550.784 1421.24 553.625C1430.03 556.477 1434.84 565.904 1432 574.691" stroke="#F8DA78" stroke-width="2" stroke-miterlimit="10"/>
<path d="M1223.62 882.141C1209.49 892.431 1189.68 889.314 1179.39 875.178C1169.1 861.041 1172.22 841.235 1186.35 830.945" stroke="#F8DA78" stroke-width="2" stroke-miterlimit="10"/>
<path d="M1221.2 873.885C1210.68 881.544 1195.95 879.223 1188.29 868.701C1180.63 858.179 1182.95 843.446 1193.47 835.786" stroke="#F8DA78" stroke-width="2" stroke-miterlimit="10"/>
<path d="M1221.18 865.451C1213.71 870.889 1203.25 869.242 1197.82 861.771C1192.38 854.299 1194.02 843.833 1201.5 838.406" stroke="#F8DA78" stroke-width="2" stroke-miterlimit="10"/>
<path d="M1222.64 857.781C1217.56 861.484 1210.43 860.356 1206.72 855.272C1203.02 850.188 1204.15 843.059 1209.23 839.356" stroke="#F8DA78" stroke-width="2" stroke-miterlimit="10"/>
<path d="M1223.63 851.713C1220.48 854.012 1216.06 853.316 1213.76 850.155C1211.47 847.005 1212.16 842.584 1215.32 840.285" stroke="#F8DA78" stroke-width="2" stroke-miterlimit="10"/>
<path d="M1227.33 847.237C1224.82 849.06 1221.3 848.508 1219.48 845.999C1217.65 843.49 1218.21 839.975 1220.72 838.152" stroke="#F8DA78" stroke-width="2" stroke-miterlimit="10"/>
<path d="M1228.38 843.004C1227.12 843.921 1225.36 843.645 1224.45 842.385C1223.53 841.125 1223.81 839.367 1225.07 838.461" stroke="#F8DA78" stroke-width="2" stroke-miterlimit="10"/>
<path d="M1168.39 775.848C1150.91 775.859 1136.72 761.701 1136.71 744.216C1136.7 726.731 1150.85 712.539 1168.34 712.528" stroke="#F8DA78" stroke-width="2" stroke-miterlimit="10"/>
<path d="M1171.29 767.736C1158.28 767.747 1147.72 757.214 1147.7 744.194C1147.69 731.185 1158.23 720.618 1171.25 720.607" stroke="#F8DA78" stroke-width="2" stroke-miterlimit="10"/>
<path d="M1176.23 760.905C1166.99 760.905 1159.5 753.433 1159.49 744.194C1159.49 734.954 1166.96 727.46 1176.2 727.449" stroke="#F8DA78" stroke-width="2" stroke-miterlimit="10"/>
<path d="M1181.92 755.556C1175.63 755.556 1170.53 750.471 1170.53 744.183C1170.53 737.894 1175.61 732.787 1181.9 732.787" stroke="#F8DA78" stroke-width="2" stroke-miterlimit="10"/>
<path d="M1186.29 751.234C1182.39 751.234 1179.22 748.073 1179.22 744.171C1179.22 740.27 1182.38 737.098 1186.28 737.098" stroke="#F8DA78" stroke-width="2" stroke-miterlimit="10"/>
<path d="M1191.9 749.775C1188.8 749.775 1186.28 747.266 1186.28 744.16C1186.28 741.055 1188.79 738.535 1191.89 738.535" stroke="#F8DA78" stroke-width="2" stroke-miterlimit="10"/>
<path d="M1195.24 746.968C1193.69 746.968 1192.43 745.708 1192.42 744.16C1192.42 742.613 1193.68 741.353 1195.23 741.342" stroke="#F8DA78" stroke-width="2" stroke-miterlimit="10"/>
<path d="M1176.22 663.056C1176.22 663.056 1148.26 639.094 1168.06 604.842C1177.1 589.203 1172.32 578.703 1164.95 574.26C1155.24 568.402 1143.06 576.128 1141.77 585.788C1139.67 601.538 1156.27 603.494 1160.51 599.393" stroke="#F8DA78" stroke-width="2" stroke-miterlimit="10"/>
<path d="M1163.67 786.37C1163.67 786.37 1126.96 783.419 1122.85 744.072C1120.97 726.1 1110.94 720.43 1102.35 721.16C1091.05 722.121 1085.74 735.539 1090.38 744.105C1097.94 758.086 1112.52 749.896 1113.54 744.105" stroke="#F8DA78" stroke-width="2" stroke-miterlimit="10"/>
<path d="M1225.99 893.514C1225.99 893.514 1194.56 912.701 1168.11 883.29C1156.03 869.861 1144.57 871.166 1138.06 876.802C1129.48 884.23 1133.07 898.2 1141.86 902.4C1156.19 909.264 1163.18 894.078 1160.59 888.772" stroke="#F8DA78" stroke-width="2" stroke-miterlimit="10"/>
<path d="M1380.01 544.506C1380.01 544.506 1394.16 510.509 1432.85 518.754C1450.53 522.523 1459.03 514.731 1460.98 506.342C1463.56 495.3 1452.44 486.105 1442.86 487.862C1427.23 490.736 1430.5 507.127 1435.71 509.901" stroke="#F8DA78" stroke-width="2" stroke-miterlimit="10"/>
<path d="M1339.39 943.56C1339.39 943.56 1325.24 977.558 1286.54 969.312C1268.87 965.544 1260.37 973.336 1258.42 981.724C1255.84 992.766 1266.96 1001.96 1276.54 1000.2C1292.17 997.331 1288.9 980.94 1283.69 978.166" stroke="#F8DA78" stroke-width="2" stroke-miterlimit="10"/>
<path d="M1258.86 570.679C1258.86 570.679 1250.33 534.857 1286.47 518.787C1302.98 511.448 1305.28 500.152 1301.93 492.206C1297.52 481.761 1283.12 480.855 1276.41 487.906C1265.46 499.423 1277.74 510.752 1283.58 509.934" stroke="#F8DA78" stroke-width="2" stroke-miterlimit="10"/>
<path d="M1160.58 630.75C1160.43 630.838 1160.27 630.926 1160.12 631.015C1134.98 645.273 1119.81 658.967 1100.13 659.586C1118.42 673.722 1121.1 698.811 1139.04 732.19" stroke="#F8DA78" stroke-width="2" stroke-miterlimit="10"/>
<path d="M1265.16 535.399C1264.98 535.377 1264.81 535.355 1264.63 535.344C1235.91 532.105 1215.59 534.261 1199.3 523.197C1205.79 545.379 1193.22 567.264 1188.11 604.809" stroke="#F8DA78" stroke-width="2" stroke-miterlimit="10"/>
<path d="M1313.38 968.273C1313.51 968.395 1313.65 968.516 1313.78 968.638C1335.11 988.135 1352.82 998.336 1359.49 1016.86C1367.28 995.098 1390.32 984.786 1416.51 957.409" stroke="#F8DA78" stroke-width="2" stroke-miterlimit="10"/>
<path d="M1405.81 519.726C1405.68 519.605 1405.55 519.483 1405.41 519.362C1384.08 499.865 1366.38 489.663 1359.7 471.139C1351.91 492.902 1328.88 503.214 1302.68 530.591" stroke="#F8DA78" stroke-width="2" stroke-miterlimit="10"/>
<path d="M1190.38 898.277C1190.41 898.454 1190.45 898.631 1190.49 898.797C1196.28 927.113 1204.61 945.77 1199.13 964.681C1218.23 951.65 1242.92 956.845 1280.2 950.103" stroke="#F8DA78" stroke-width="2" stroke-miterlimit="10"/>
<path d="M1132.02 769.349C1131.94 769.515 1131.88 769.669 1131.8 769.835C1119.84 796.14 1115.62 816.146 1100.06 828.215C1123.17 828.9 1140.09 847.623 1174.22 864.07" stroke="#F8DA78" stroke-width="2" stroke-miterlimit="10"/>
<path d="M1141.52 619.896C1141.35 619.995 1141.17 620.084 1141.01 620.183C1113.47 635.801 1096.84 650.81 1075.27 651.495C1095.32 666.991 1098.26 694.479 1117.91 731.052" stroke="#F8DA78" stroke-width="2" stroke-miterlimit="10"/>
<path d="M1256.12 515.405C1255.92 515.383 1255.73 515.361 1255.53 515.339C1224.07 511.791 1201.8 514.156 1183.95 502.031C1191.05 526.347 1177.28 550.32 1171.69 591.458" stroke="#F8DA78" stroke-width="2" stroke-miterlimit="10"/>
<path d="M1308.95 989.76C1309.09 989.892 1309.23 990.025 1309.38 990.158C1332.74 1011.52 1352.16 1022.7 1359.47 1043C1368.01 1019.15 1393.24 1007.85 1421.95 977.856" stroke="#F8DA78" stroke-width="2" stroke-miterlimit="10"/>
<path d="M1410.23 498.24C1410.09 498.108 1409.94 497.975 1409.8 497.842C1386.44 476.478 1367.02 465.304 1359.71 445C1351.17 468.851 1325.94 480.147 1297.23 510.144" stroke="#F8DA78" stroke-width="2" stroke-miterlimit="10"/>
<path d="M1174.18 913.066C1174.22 913.254 1174.25 913.453 1174.3 913.641C1180.64 944.665 1189.78 965.112 1183.76 985.836C1204.68 971.556 1231.75 977.248 1272.6 969.865" stroke="#F8DA78" stroke-width="2" stroke-miterlimit="10"/>
<path d="M1110.22 771.781C1110.14 771.957 1110.05 772.134 1109.97 772.311C1096.88 801.136 1092.24 823.054 1075.19 836.283C1100.51 837.035 1119.06 857.549 1156.45 875.575" stroke="#F8DA78" stroke-width="2" stroke-miterlimit="10"/>
</g>
</g>
<mask id="mask1_1129_8" style="mask-type:alpha" maskUnits="userSpaceOnUse" x="-59" y="90" width="369" height="520">
<rect x="-59" y="90" width="369" height="520" fill="#D9D9D9"/>
</mask>
<g mask="url(#mask1_1129_8)">
<g opacity="0.7">
<path d="M25.8834 432.846C25.8834 432.846 26.5288 449.869 38.6003 456.323C50.6717 462.777 59.7379 463.735 64.861 470.341C65.1131 461.991 71.8699 455.879 77.8199 443.546C83.7699 431.213 74.26 417.084 74.26 417.084" stroke="#F8DA78" stroke-width="2" stroke-miterlimit="10"/>
<path d="M-22.5133 417.165C-22.5133 417.165 -31.993 431.314 -26.0228 443.627C-20.0526 455.95 -13.2757 462.051 -13.0135 470.401C-7.90051 463.796 1.16569 462.818 13.217 456.343C25.2783 449.859 25.8834 432.846 25.8834 432.846" stroke="#F8DA78" stroke-width="2" stroke-miterlimit="10"/>
<path d="M104.08 325.023C104.08 325.023 120.065 319.154 122.485 305.681C124.895 292.208 122.999 283.283 127.699 276.375C119.682 278.715 111.775 274.177 98.2111 272.332C84.6472 270.486 74.1489 283.898 74.1489 283.898" stroke="#F8DA78" stroke-width="2" stroke-miterlimit="10"/>
<path d="M74.26 417.074C74.26 417.074 84.7784 430.466 98.3424 428.59C111.906 426.725 119.803 422.166 127.82 424.496C123.111 417.598 124.986 408.673 122.556 395.2C120.115 381.727 104.121 375.888 104.121 375.888" stroke="#F8DA78" stroke-width="2" stroke-miterlimit="10"/>
<path d="M-22.6343 283.977C-22.6343 283.977 -32.1442 269.849 -26.1942 257.515C-20.2442 245.182 -13.4773 239.071 -13.2353 230.721C-8.11223 237.316 0.953963 238.274 13.0254 244.738C25.0968 251.192 25.7423 268.215 25.7423 268.215" stroke="#F8DA78" stroke-width="2" stroke-miterlimit="10"/>
<path d="M104.121 375.899C104.121 375.899 120.509 380.548 130.382 371.068C140.255 361.589 143.966 353.259 151.822 350.425C143.956 347.612 140.234 339.282 130.341 329.822C120.448 320.353 104.081 325.032 104.081 325.032" stroke="#F8DA78" stroke-width="2" stroke-miterlimit="10"/>
<path d="M74.1389 283.887C74.1389 283.887 83.6185 269.738 77.6484 257.425C71.6782 245.102 64.9013 239.001 64.6391 230.651C59.5261 237.256 50.4599 238.234 38.4086 244.709C26.3473 251.193 25.7422 268.206 25.7422 268.206" stroke="#F8DA78" stroke-width="2" stroke-miterlimit="10"/>
<path d="M25.9237 477.267C25.9237 477.267 26.912 503.467 45.4982 513.41C64.0844 523.353 78.0417 524.826 85.928 534.991C86.3112 522.133 96.7287 512.724 105.886 493.735C115.043 474.756 100.4 452.994 100.4 452.994" stroke="#F8DA78" stroke-width="2" stroke-miterlimit="10"/>
<path d="M-48.5824 453.124C-48.5824 453.124 -63.1851 474.906 -53.9878 493.875C-44.8006 512.844 -34.3629 522.243 -33.9595 535.091C-26.0934 524.916 -12.1361 523.413 6.42994 513.439C24.996 503.466 25.9338 477.256 25.9338 477.256" stroke="#F8DA78" stroke-width="2" stroke-miterlimit="10"/>
<path d="M146.315 311.255C146.315 311.255 170.932 302.219 174.643 281.476C178.355 260.732 175.44 246.997 182.671 236.357C170.327 239.968 158.155 232.969 137.269 230.125C116.384 227.281 100.218 247.924 100.218 247.924" stroke="#F8DA78" stroke-width="2" stroke-miterlimit="10"/>
<path d="M100.4 452.984C100.4 452.984 116.606 473.596 137.481 470.722C158.357 467.838 170.519 460.829 182.873 464.409C175.622 453.78 178.516 440.045 174.764 419.301C171.013 398.557 146.386 389.572 146.386 389.572" stroke="#F8DA78" stroke-width="2" stroke-miterlimit="10"/>
<path d="M-48.7741 248.066C-48.7741 248.066 -63.4171 226.313 -54.2601 207.324C-45.1032 188.345 -34.6857 178.926 -34.3024 166.068C-26.4162 176.233 -12.4589 177.706 6.1273 187.649C24.7135 197.592 25.7018 223.792 25.7018 223.792" stroke="#F8DA78" stroke-width="2" stroke-miterlimit="10"/>
<path d="M146.376 389.582C146.376 389.582 171.598 396.742 186.806 382.14C202.003 367.538 207.721 354.71 219.823 350.353C207.711 346.017 201.983 333.2 186.755 318.628C171.527 304.055 146.315 311.256 146.315 311.256" stroke="#F8DA78" stroke-width="2" stroke-miterlimit="10"/>
<path d="M100.208 247.925C100.208 247.925 114.811 226.142 105.613 207.183C96.4262 188.214 85.9885 178.815 85.5851 165.968C77.719 176.143 63.7617 177.646 45.1957 187.619C26.6297 197.593 25.6918 223.803 25.6918 223.803" stroke="#F8DA78" stroke-width="2" stroke-miterlimit="10"/>
<path d="M25.9237 483.34C25.9237 483.34 26.9625 510.8 46.4361 521.217C65.9098 531.635 80.5427 533.178 88.8021 543.827C89.2055 530.354 100.117 520.491 109.708 500.595C119.308 480.698 103.959 457.907 103.959 457.907" stroke="#F8DA78" stroke-width="2" stroke-miterlimit="10"/>
<path d="M-52.1525 458.047C-52.1525 458.047 -67.451 480.869 -57.8201 500.745C-48.1892 520.622 -37.2573 530.464 -36.8337 543.937C-28.5945 533.278 -13.9615 531.705 5.49193 521.247C24.9454 510.789 25.9337 483.329 25.9337 483.329" stroke="#F8DA78" stroke-width="2" stroke-miterlimit="10"/>
<path d="M152.084 309.382C152.084 309.382 177.881 299.913 181.773 278.171C185.666 256.428 182.61 242.038 190.184 230.894C177.245 234.676 164.488 227.345 142.604 224.37C120.72 221.395 103.778 243.026 103.778 243.026" stroke="#F8DA78" stroke-width="2" stroke-miterlimit="10"/>
<path d="M103.98 457.907C103.98 457.907 120.962 479.508 142.836 476.493C164.72 473.477 177.457 466.126 190.406 469.877C182.812 458.744 185.837 444.343 181.904 422.611C177.971 400.879 152.165 391.45 152.165 391.45" stroke="#F8DA78" stroke-width="2" stroke-miterlimit="10"/>
<path d="M-52.344 243.146C-52.344 243.146 -67.6829 220.355 -58.0923 200.458C-48.4917 180.562 -37.58 170.699 -37.1867 157.226C-28.9273 167.875 -14.2943 169.418 5.17934 179.836C24.653 190.253 25.6917 217.713 25.6917 217.713" stroke="#F8DA78" stroke-width="2" stroke-miterlimit="10"/>
<path d="M152.165 391.46C152.165 391.46 178.597 398.963 194.531 383.655C210.464 368.357 216.445 354.914 229.131 350.346C216.445 345.797 210.434 332.375 194.48 317.097C178.526 301.819 152.104 309.372 152.104 309.372" stroke="#F8DA78" stroke-width="2" stroke-miterlimit="10"/>
<path d="M103.778 243.016C103.778 243.016 119.077 220.194 109.446 200.318C99.8146 180.441 88.8828 170.599 88.4592 157.126C80.22 167.785 65.587 169.358 46.1335 179.816C26.6801 190.273 25.6918 217.734 25.6918 217.734" stroke="#F8DA78" stroke-width="2" stroke-miterlimit="10"/>
<path d="M93.3354 397.212C119.119 359.921 109.79 308.79 72.4981 283.007C35.2066 257.224 -15.9257 266.553 -41.7091 303.844C-67.4925 341.135 -58.1633 392.266 -20.8718 418.049C16.4197 443.831 67.5521 434.502 93.3354 397.212Z" stroke="#F8DA78" stroke-width="2" stroke-miterlimit="10"/>
<path d="M29.6409 420.955C68.5318 418.835 98.3405 385.59 96.2207 346.7C94.1008 307.81 60.8551 278.002 21.9642 280.122C-16.9266 282.242 -46.7354 315.487 -44.6155 354.377C-42.4956 393.267 -9.24989 423.075 29.6409 420.955Z" stroke="#F8DA78" stroke-width="2" stroke-miterlimit="10"/>
<path d="M74.1389 283.888C74.1389 283.888 95.1555 267.581 87.1381 251.043C79.1207 234.504 71.2042 222.665 70.8512 211.461C63.9936 220.335 50.6414 225.277 34.4554 233.98C18.2694 242.683 25.7321 268.206 25.7321 268.206" stroke="#F8DA78" stroke-width="2" stroke-miterlimit="10"/>
<path d="M-22.5134 417.164C-22.5134 417.164 -43.53 433.471 -35.5126 450.01C-27.4953 466.548 -19.5788 478.387 -19.2258 489.591C-12.3682 480.717 0.984045 475.776 17.1701 467.073C33.3561 458.37 25.8934 432.846 25.8934 432.846" stroke="#F8DA78" stroke-width="2" stroke-miterlimit="10"/>
<path d="M104.08 325.023C104.08 325.023 130.674 324.186 133.911 306.094C137.148 288.003 137.703 273.774 144.006 264.496C133.246 267.642 119.53 263.8 101.317 261.319C83.1042 258.838 74.1389 283.888 74.1389 283.888" stroke="#F8DA78" stroke-width="2" stroke-miterlimit="10"/>
<path d="M104.121 375.889C104.121 375.889 126.126 390.834 139.377 378.107C152.628 365.381 161.443 354.187 171.991 350.385C161.432 346.603 152.598 335.44 139.327 322.723C126.045 310.017 104.07 325.012 104.07 325.012" stroke="#F8DA78" stroke-width="2" stroke-miterlimit="10"/>
<path d="M74.2599 417.074C74.2599 417.074 83.2756 442.104 101.479 439.593C119.682 437.082 133.387 433.209 144.157 436.335C137.834 427.068 137.259 412.848 133.992 394.757C130.724 376.675 104.131 375.889 104.131 375.889" stroke="#F8DA78" stroke-width="2" stroke-miterlimit="10"/>
<path d="M25.8935 432.847C25.8935 432.847 18.4711 458.391 34.6773 467.064C50.8835 475.737 64.2458 480.658 71.1135 489.512C71.4463 478.298 79.3426 466.449 87.3196 449.9C95.3068 433.351 74.2498 417.075 74.2498 417.075" stroke="#F8DA78" stroke-width="2" stroke-miterlimit="10"/>
<path d="M25.7321 268.217C25.7321 268.217 33.1545 242.673 16.9483 234C0.742092 225.327 -12.6202 220.406 -19.4879 211.552C-19.8207 222.766 -27.7171 234.615 -35.6941 251.164C-43.6812 267.713 -22.6243 283.989 -22.6243 283.989" stroke="#F8DA78" stroke-width="2" stroke-miterlimit="10"/>
<path d="M23.1604 215.164C16.6859 219.601 25.7118 234.657 25.7118 234.657C25.7118 234.657 34.7074 219.591 28.2229 215.164C26.7304 214.145 24.6529 214.145 23.1604 215.164Z" stroke="#F8DA78" stroke-width="2" stroke-miterlimit="10"/>
<path d="M22.2124 232.448C22.2124 232.448 21.7082 228.364 19.8022 225.379C18.6525 223.584 16.6154 222.233 14.9615 222.273C11.0687 222.364 11.4621 227.92 15.0623 228.697C17.6238 229.251 19.9938 230.088 22.2023 232.458L22.2124 232.448Z" stroke="#F8DA78" stroke-width="2" stroke-miterlimit="10"/>
<path d="M29.2011 232.438C29.2011 232.438 29.6953 228.353 31.5912 225.358C32.7308 223.553 34.778 222.202 36.4218 222.242C40.3145 222.323 39.9313 227.889 36.331 228.666C33.7796 229.221 31.3996 230.068 29.191 232.438H29.2011Z" stroke="#F8DA78" stroke-width="2" stroke-miterlimit="10"/>
<path d="M28.4752 485.9C34.9496 481.463 25.9237 466.407 25.9237 466.407C25.9237 466.407 16.9281 481.473 23.4126 485.9C24.9052 486.919 26.9826 486.919 28.4752 485.9Z" stroke="#F8DA78" stroke-width="2" stroke-miterlimit="10"/>
<path d="M29.4231 468.614C29.4231 468.614 29.9273 472.698 31.8334 475.683C32.983 477.478 35.0201 478.83 36.674 478.789C40.5667 478.699 40.1735 473.142 36.5732 472.366C34.0117 471.811 31.6417 470.974 29.4332 468.604L29.4231 468.614Z" stroke="#F8DA78" stroke-width="2" stroke-miterlimit="10"/>
<path d="M22.4343 468.625C22.4343 468.625 21.9402 472.71 20.0341 475.705C18.8946 477.51 16.8474 478.861 15.2036 478.821C11.3109 478.74 11.6941 473.174 15.2943 472.397C17.8559 471.842 20.2258 470.995 22.4343 468.625Z" stroke="#F8DA78" stroke-width="2" stroke-miterlimit="10"/>
<path d="M103.233 239.456C95.3874 239.244 93.8445 256.72 93.8445 256.72C93.8445 256.72 109.98 249.813 107.338 242.431C106.733 240.726 105.049 239.506 103.233 239.456Z" stroke="#F8DA78" stroke-width="2" stroke-miterlimit="10"/>
<path d="M92.3115 252.877C92.3115 252.877 94.3083 249.276 94.5201 245.737C94.6512 243.609 93.794 241.31 92.4325 240.372C89.2256 238.153 86.2808 242.883 88.7415 245.636C90.4862 247.582 91.9182 249.66 92.3115 252.877Z" stroke="#F8DA78" stroke-width="2" stroke-miterlimit="10"/>
<path d="M97.969 256.982C97.969 256.982 100.773 253.967 104.07 252.666C106.057 251.879 108.497 251.99 109.819 252.978C112.925 255.338 109.345 259.604 105.966 258.121C103.576 257.073 101.156 256.357 97.9791 256.982H97.969Z" stroke="#F8DA78" stroke-width="2" stroke-miterlimit="10"/>
<path d="M155.381 389.838C153.163 382.315 136.059 386.238 136.059 386.238C136.059 386.238 147.616 399.449 153.818 394.659C155.25 393.549 155.896 391.573 155.381 389.838Z" stroke="#F8DA78" stroke-width="2" stroke-miterlimit="10"/>
<path d="M139.236 383.595C139.236 383.595 143.28 384.382 146.709 383.494C148.776 382.96 150.692 381.437 151.166 379.854C152.285 376.123 146.87 374.781 145.024 377.968C143.713 380.227 142.181 382.234 139.246 383.605L139.236 383.595Z" stroke="#F8DA78" stroke-width="2" stroke-miterlimit="10"/>
<path d="M137.088 390.242C137.088 390.242 140.819 391.977 143.078 394.709C144.44 396.353 145.095 398.713 144.55 400.266C143.27 403.947 138.096 401.859 138.469 398.189C138.732 395.587 138.661 393.066 137.088 390.232V390.242Z" stroke="#F8DA78" stroke-width="2" stroke-miterlimit="10"/>
<path d="M153.738 306.164C147.516 301.384 135.989 314.615 135.989 314.615C135.989 314.615 153.102 318.508 155.311 310.985C155.815 309.25 155.18 307.273 153.738 306.164Z" stroke="#F8DA78" stroke-width="2" stroke-miterlimit="10"/>
<path d="M137.007 310.612C137.007 310.612 140.739 308.867 142.987 306.134C144.349 304.49 144.994 302.13 144.45 300.567C143.159 296.886 137.995 298.984 138.369 302.655C138.631 305.257 138.57 307.778 137.007 310.612Z" stroke="#F8DA78" stroke-width="2" stroke-miterlimit="10"/>
<path d="M139.175 317.257C139.175 317.257 143.219 316.471 146.648 317.348C148.716 317.883 150.632 319.405 151.106 320.979C152.235 324.71 146.82 326.061 144.964 322.875C143.643 320.616 142.11 318.619 139.175 317.257Z" stroke="#F8DA78" stroke-width="2" stroke-miterlimit="10"/>
<path d="M107.54 458.481C110.162 451.089 94.0159 444.212 94.0159 444.212C94.0159 444.212 95.5992 461.688 103.435 461.456C105.24 461.406 106.924 460.176 107.529 458.471L107.54 458.481Z" stroke="#F8DA78" stroke-width="2" stroke-miterlimit="10"/>
<path d="M98.1405 443.949C98.1405 443.949 100.954 446.954 104.242 448.255C106.228 449.042 108.679 448.931 109.98 447.932C113.076 445.573 109.486 441.307 106.118 442.799C103.727 443.858 101.307 444.574 98.1304 443.959L98.1405 443.949Z" stroke="#F8DA78" stroke-width="2" stroke-miterlimit="10"/>
<path d="M92.4931 448.054C92.4931 448.054 94.4898 451.654 94.7117 455.184C94.8428 457.312 93.9856 459.611 92.6343 460.549C89.4374 462.767 86.4725 458.048 88.9331 455.295C90.6778 453.338 92.0998 451.261 92.4931 448.054Z" stroke="#F8DA78" stroke-width="2" stroke-miterlimit="10"/>
<path d="M72.6766 205.833L83.0236 173.875" stroke="#F8DA78" stroke-width="2" stroke-miterlimit="10"/>
<path d="M83.3564 525.26L72.949 493.322" stroke="#F8DA78" stroke-width="2" stroke-miterlimit="10"/>
<path d="M175.662 458.068L148.474 438.352" stroke="#F8DA78" stroke-width="2" stroke-miterlimit="10"/>
<path d="M210.848 349.448L177.255 349.478" stroke="#F8DA78" stroke-width="2" stroke-miterlimit="10"/>
<path d="M175.46 240.897L148.302 260.663" stroke="#F8DA78" stroke-width="2" stroke-miterlimit="10"/>
<path d="M104.857 192.301C114.226 179.382 132.287 176.508 145.206 185.867C158.125 195.235 160.999 213.297 151.64 226.215" stroke="#F8DA78" stroke-width="2" stroke-miterlimit="10"/>
<path d="M109.284 198.785C116.253 189.175 129.696 187.027 139.306 194.005C148.917 200.974 151.065 214.416 144.087 224.027" stroke="#F8DA78" stroke-width="2" stroke-miterlimit="10"/>
<path d="M111.684 206.097C116.636 199.27 126.176 197.747 133.003 202.699C139.831 207.65 141.354 217.19 136.402 224.017" stroke="#F8DA78" stroke-width="2" stroke-miterlimit="10"/>
<path d="M112.572 213.165C115.94 208.516 122.435 207.487 127.084 210.855C131.733 214.223 132.761 220.718 129.393 225.367" stroke="#F8DA78" stroke-width="2" stroke-miterlimit="10"/>
<path d="M113.429 218.702C115.517 215.818 119.551 215.173 122.435 217.27C125.319 219.358 125.964 223.391 123.867 226.276" stroke="#F8DA78" stroke-width="2" stroke-miterlimit="10"/>
<path d="M111.483 223.634C113.147 221.345 116.354 220.831 118.643 222.495C120.932 224.159 121.446 227.366 119.782 229.655" stroke="#F8DA78" stroke-width="2" stroke-miterlimit="10"/>
<path d="M111.775 227.607C112.602 226.457 114.205 226.205 115.355 227.032C116.505 227.859 116.757 229.462 115.93 230.612" stroke="#F8DA78" stroke-width="2" stroke-miterlimit="10"/>
<path d="M182.752 268.972C197.919 264.03 214.226 272.32 219.178 287.487C224.119 302.654 215.83 318.961 200.662 323.912" stroke="#F8DA78" stroke-width="2" stroke-miterlimit="10"/>
<path d="M182.53 276.817C193.815 273.136 205.957 279.308 209.627 290.592C213.308 301.877 207.137 314.018 195.852 317.689" stroke="#F8DA78" stroke-width="2" stroke-miterlimit="10"/>
<path d="M180.17 284.139C188.187 281.527 196.8 285.904 199.412 293.921C202.024 301.938 197.647 310.55 189.629 313.162" stroke="#F8DA78" stroke-width="2" stroke-miterlimit="10"/>
<path d="M176.741 290.382C182.197 288.607 188.066 291.582 189.841 297.038C191.616 302.493 188.641 308.363 183.185 310.137" stroke="#F8DA78" stroke-width="2" stroke-miterlimit="10"/>
<path d="M174.17 295.373C177.558 294.274 181.199 296.12 182.298 299.508C183.397 302.896 181.552 306.537 178.163 307.636" stroke="#F8DA78" stroke-width="2" stroke-miterlimit="10"/>
<path d="M169.702 298.218C172.395 297.34 175.289 298.813 176.166 301.505C177.044 304.198 175.571 307.092 172.879 307.969" stroke="#F8DA78" stroke-width="2" stroke-miterlimit="10"/>
<path d="M167.604 301.596C168.956 301.152 170.398 301.888 170.842 303.24C171.285 304.591 170.549 306.033 169.198 306.477" stroke="#F8DA78" stroke-width="2" stroke-miterlimit="10"/>
<path d="M200.712 376.785C215.89 381.696 224.21 397.993 219.299 413.17C214.377 428.347 198.09 436.667 182.913 431.756" stroke="#F8DA78" stroke-width="2" stroke-miterlimit="10"/>
<path d="M195.912 382.998C207.207 386.658 213.399 398.78 209.738 410.074C206.077 421.369 193.956 427.561 182.661 423.9" stroke="#F8DA78" stroke-width="2" stroke-miterlimit="10"/>
<path d="M189.7 387.536C197.717 390.137 202.114 398.739 199.522 406.757C196.921 414.774 188.318 419.171 180.301 416.579" stroke="#F8DA78" stroke-width="2" stroke-miterlimit="10"/>
<path d="M183.256 390.57C188.712 392.335 191.707 398.194 189.942 403.66C188.177 409.126 182.318 412.111 176.852 410.346" stroke="#F8DA78" stroke-width="2" stroke-miterlimit="10"/>
<path d="M178.244 393.092C181.632 394.191 183.488 397.822 182.388 401.21C181.289 404.599 177.659 406.454 174.27 405.355" stroke="#F8DA78" stroke-width="2" stroke-miterlimit="10"/>
<path d="M172.959 392.769C175.652 393.647 177.134 396.531 176.257 399.234C175.379 401.926 172.495 403.409 169.792 402.531" stroke="#F8DA78" stroke-width="2" stroke-miterlimit="10"/>
<path d="M169.268 394.271C170.62 394.705 171.356 396.157 170.922 397.498C170.488 398.839 169.036 399.585 167.695 399.152" stroke="#F8DA78" stroke-width="2" stroke-miterlimit="10"/>
<path d="M151.862 474.565C161.251 487.463 158.407 505.535 145.509 514.923C132.61 524.312 114.538 521.468 105.149 508.57" stroke="#F8DA78" stroke-width="2" stroke-miterlimit="10"/>
<path d="M144.329 476.773C151.317 486.373 149.2 499.816 139.599 506.804C129.998 513.793 116.555 511.675 109.567 502.075" stroke="#F8DA78" stroke-width="2" stroke-miterlimit="10"/>
<path d="M136.634 476.793C141.596 483.61 140.093 493.15 133.276 498.112C126.459 503.074 116.908 501.571 111.957 494.754" stroke="#F8DA78" stroke-width="2" stroke-miterlimit="10"/>
<path d="M129.635 475.462C133.014 480.101 131.985 486.605 127.346 489.984C122.707 493.362 116.202 492.333 112.824 487.694" stroke="#F8DA78" stroke-width="2" stroke-miterlimit="10"/>
<path d="M124.099 474.554C126.196 477.428 125.561 481.462 122.677 483.559C119.803 485.657 115.769 485.022 113.671 482.138" stroke="#F8DA78" stroke-width="2" stroke-miterlimit="10"/>
<path d="M120.014 471.186C121.678 473.475 121.174 476.682 118.885 478.346C116.596 480.01 113.389 479.506 111.725 477.217" stroke="#F8DA78" stroke-width="2" stroke-miterlimit="10"/>
<path d="M116.152 470.228C116.989 471.378 116.737 472.981 115.587 473.808C114.437 474.645 112.834 474.393 112.007 473.243" stroke="#F8DA78" stroke-width="2" stroke-miterlimit="10"/>
<path d="M54.877 524.957C54.887 540.911 41.9685 553.859 26.0144 553.869C10.0604 553.88 -2.88847 540.961 -2.89856 525.008" stroke="#F8DA78" stroke-width="2" stroke-miterlimit="10"/>
<path d="M47.4746 522.315C47.4847 534.185 37.8739 543.825 25.9941 543.835C14.1244 543.846 4.48335 534.235 4.47327 522.355" stroke="#F8DA78" stroke-width="2" stroke-miterlimit="10"/>
<path d="M41.2423 517.807C41.2423 526.237 34.425 533.075 25.9942 533.085C17.5634 533.085 10.7259 526.268 10.7158 517.837" stroke="#F8DA78" stroke-width="2" stroke-miterlimit="10"/>
<path d="M36.3614 512.613C36.3614 518.351 31.7224 523.01 25.9842 523.01C20.246 523.01 15.5868 518.371 15.5868 512.633" stroke="#F8DA78" stroke-width="2" stroke-miterlimit="10"/>
<path d="M32.4181 508.629C32.4181 512.189 29.5339 515.083 25.974 515.083C22.4141 515.083 19.5198 512.199 19.5198 508.639" stroke="#F8DA78" stroke-width="2" stroke-miterlimit="10"/>
<path d="M31.087 503.507C31.087 506.341 28.7978 508.64 25.9639 508.64C23.1301 508.64 20.8308 506.351 20.8308 503.517" stroke="#F8DA78" stroke-width="2" stroke-miterlimit="10"/>
<path d="M28.5255 500.461C28.5255 501.873 27.3758 503.023 25.9639 503.033C24.5521 503.033 23.4024 501.883 23.3923 500.471" stroke="#F8DA78" stroke-width="2" stroke-miterlimit="10"/>
<path d="M-3.23132 176.052C-3.2414 160.099 9.67717 147.15 25.6312 147.14C41.5853 147.13 54.5341 160.048 54.5442 176.002" stroke="#F8DA78" stroke-width="2" stroke-miterlimit="10"/>
<path d="M4.16077 178.695C4.15069 166.825 13.7614 157.184 25.6413 157.174C37.511 157.164 47.1521 166.775 47.1622 178.654" stroke="#F8DA78" stroke-width="2" stroke-miterlimit="10"/>
<path d="M10.3932 183.203C10.3932 174.772 17.2105 167.935 25.6413 167.925C34.0722 167.925 40.9096 174.742 40.9197 183.173" stroke="#F8DA78" stroke-width="2" stroke-miterlimit="10"/>
<path d="M15.2742 188.396C15.2742 182.658 19.9132 177.999 25.6514 177.999C31.3896 177.999 36.0488 182.638 36.0488 188.376" stroke="#F8DA78" stroke-width="2" stroke-miterlimit="10"/>
<path d="M19.2173 192.378C19.2173 188.819 22.1015 185.924 25.6615 185.924C29.2214 185.924 32.1157 188.808 32.1157 192.368" stroke="#F8DA78" stroke-width="2" stroke-miterlimit="10"/>
<path d="M20.5485 197.514C20.5485 194.68 22.8377 192.381 25.6715 192.381C28.5053 192.381 30.8047 194.67 30.8047 197.504" stroke="#F8DA78" stroke-width="2" stroke-miterlimit="10"/>
<path d="M23.1101 200.557C23.1101 199.145 24.2597 197.996 25.6716 197.986C27.0835 197.976 28.2332 199.135 28.2432 200.547" stroke="#F8DA78" stroke-width="2" stroke-miterlimit="10"/>
<path d="M99.7336 182.992C99.7336 182.992 121.597 157.478 152.85 175.55C167.12 183.799 176.7 179.432 180.755 172.706C186.099 163.852 179.05 152.739 170.236 151.559C155.865 149.643 154.08 164.79 157.822 168.662" stroke="#F8DA78" stroke-width="2" stroke-miterlimit="10"/>
<path d="M-12.7817 171.535C-12.7817 171.535 -10.0891 138.044 25.8126 134.293C42.2104 132.578 47.3839 123.421 46.7183 115.586C45.8409 105.279 33.598 100.429 25.7823 104.664C13.0251 111.562 20.4979 124.864 25.7823 125.801" stroke="#F8DA78" stroke-width="2" stroke-miterlimit="10"/>
<path d="M64.4775 529.273C64.4775 529.273 61.7848 562.764 25.8831 566.515C9.48535 568.23 4.31186 577.387 4.97745 585.222C5.85483 595.529 18.0977 600.379 25.9134 596.144C38.6706 589.246 31.1978 575.944 25.9134 575.007" stroke="#F8DA78" stroke-width="2" stroke-miterlimit="10"/>
<path d="M162.239 472.407C162.239 472.407 179.746 501.088 152.911 525.22C140.658 536.242 141.848 546.7 146.991 552.64C153.768 560.465 166.515 557.188 170.347 549.171C176.61 536.091 162.753 529.718 157.913 532.077" stroke="#F8DA78" stroke-width="2" stroke-miterlimit="10"/>
<path d="M207.903 368.942C207.903 368.942 238.924 381.85 231.4 417.156C227.961 433.281 235.071 441.036 242.725 442.821C252.8 445.17 261.191 435.025 259.587 426.282C256.965 412.023 242.009 415.008 239.478 419.757" stroke="#F8DA78" stroke-width="2" stroke-miterlimit="10"/>
<path d="M184.032 258.393C184.032 258.393 216.717 250.607 231.38 283.584C238.076 298.65 248.383 300.748 255.624 297.692C265.154 293.668 265.981 280.528 259.547 274.407C249.038 264.413 238.701 275.617 239.448 280.952" stroke="#F8DA78" stroke-width="2" stroke-miterlimit="10"/>
<path d="M129.161 168.912C129.08 168.77 129 168.629 128.919 168.488C115.91 145.556 103.415 131.71 102.85 113.749C89.9515 130.439 67.0591 132.89 36.6031 149.257" stroke="#F8DA78" stroke-width="2" stroke-miterlimit="10"/>
<path d="M-77.5159 532.086C-77.4352 532.227 -77.3545 532.368 -77.2738 532.51C-64.2645 555.442 -51.7695 569.288 -51.2048 587.248C-38.3064 570.559 -15.414 568.108 15.0419 551.741" stroke="#F8DA78" stroke-width="2" stroke-miterlimit="10"/>
<path d="M216.162 264.331C216.182 264.17 216.202 264.009 216.212 263.847C219.167 237.648 217.201 219.102 227.296 204.238C207.045 210.157 187.088 198.691 152.83 194.032" stroke="#F8DA78" stroke-width="2" stroke-miterlimit="10"/>
<path d="M230.452 392.667C230.563 392.546 230.674 392.425 230.785 392.304C248.574 372.841 257.883 356.686 274.785 350.594C254.928 343.485 245.519 322.469 220.539 298.568" stroke="#F8DA78" stroke-width="2" stroke-miterlimit="10"/>
<path d="M166.585 504.897C166.747 504.867 166.908 504.837 167.059 504.796C192.897 499.512 209.92 491.908 227.175 496.91C215.285 479.484 220.025 456.955 213.873 422.94" stroke="#F8DA78" stroke-width="2" stroke-miterlimit="10"/>
<path d="M48.9469 558.144C49.0982 558.215 49.2394 558.275 49.3906 558.346C73.3923 569.257 91.6457 573.109 102.658 587.308C103.284 566.222 120.367 550.782 135.373 519.641" stroke="#F8DA78" stroke-width="2" stroke-miterlimit="10"/>
<path d="M2.68807 142.853C2.5368 142.783 2.39561 142.722 2.24434 142.651C-21.7574 131.74 -40.0108 127.888 -51.0233 113.689C-51.6485 134.775 -68.7321 150.215 -83.7483 181.356" stroke="#F8DA78" stroke-width="2" stroke-miterlimit="10"/>
<path d="M139.064 151.517C138.974 151.366 138.893 151.205 138.802 151.053C124.552 125.923 110.857 110.756 110.232 91.0707C96.0933 109.364 71.0125 112.046 37.6421 129.977" stroke="#F8DA78" stroke-width="2" stroke-miterlimit="10"/>
<path d="M-87.4189 549.483C-87.3282 549.634 -87.2475 549.796 -87.1567 549.947C-72.907 575.078 -59.2119 590.245 -58.5867 609.93C-44.4478 591.636 -19.3671 588.954 14.0034 571.024" stroke="#F8DA78" stroke-width="2" stroke-miterlimit="10"/>
<path d="M234.395 256.084C234.416 255.903 234.436 255.731 234.456 255.55C237.693 226.839 235.535 206.519 246.598 190.232C224.411 196.716 202.538 184.151 165.002 179.048" stroke="#F8DA78" stroke-width="2" stroke-miterlimit="10"/>
<path d="M250.057 396.713C250.178 396.582 250.299 396.45 250.42 396.319C269.914 375.001 280.11 357.282 298.635 350.616C276.872 342.821 266.566 319.798 239.196 293.608" stroke="#F8DA78" stroke-width="2" stroke-miterlimit="10"/>
<path d="M180.079 519.683C180.25 519.643 180.432 519.613 180.603 519.573C208.911 513.784 227.568 505.444 246.477 510.94C233.447 491.85 238.641 467.153 231.904 429.881" stroke="#F8DA78" stroke-width="2" stroke-miterlimit="10"/>
<path d="M51.1656 578.042C51.327 578.113 51.4883 578.194 51.6497 578.264C77.9507 590.214 97.9488 594.44 110.02 610C110.706 586.897 129.423 569.975 145.871 535.859" stroke="#F8DA78" stroke-width="2" stroke-miterlimit="10"/>
<path d="M0.469631 122.958C0.308275 122.887 0.146923 122.807 -0.0144326 122.736C-26.3154 110.786 -46.3135 106.56 -58.3849 91C-59.0707 114.104 -77.788 131.025 -94.2362 165.141" stroke="#F8DA78" stroke-width="2" stroke-miterlimit="10"/>
</g>
</g>
<mask id="mask2_1129_8" style="mask-type:alpha" maskUnits="userSpaceOnUse" x="10" y="1143" width="521" height="369">
<rect x="10.9998" y="1512" width="369" height="520" transform="rotate(-90 10.9998 1512)" fill="#D9D9D9"/>
</mask>
<g mask="url(#mask2_1129_8)">
<g opacity="0.7">
<path d="M354.962 1426.82C354.962 1426.82 371.985 1426.17 378.439 1414.1C384.893 1402.03 385.851 1392.96 392.456 1387.84C384.106 1387.59 377.995 1380.83 365.661 1374.88C353.328 1368.93 339.2 1378.44 339.2 1378.44" stroke="#F8DA78" stroke-width="2" stroke-miterlimit="10"/>
<path d="M339.281 1475.21C339.281 1475.21 353.429 1484.69 365.743 1478.72C378.066 1472.75 384.167 1465.98 392.517 1465.71C385.912 1460.6 384.933 1451.54 378.459 1439.48C371.975 1427.42 354.962 1426.82 354.962 1426.82" stroke="#F8DA78" stroke-width="2" stroke-miterlimit="10"/>
<path d="M247.139 1348.62C247.139 1348.62 241.27 1332.64 227.797 1330.22C214.324 1327.81 205.399 1329.7 198.491 1325C200.831 1333.02 196.293 1340.93 194.447 1354.49C192.602 1368.05 206.014 1378.55 206.014 1378.55" stroke="#F8DA78" stroke-width="2" stroke-miterlimit="10"/>
<path d="M339.189 1378.44C339.189 1378.44 352.582 1367.92 350.706 1354.36C348.84 1340.79 344.282 1332.9 346.612 1324.88C339.714 1329.59 330.789 1327.71 317.316 1330.15C303.843 1332.59 298.004 1348.58 298.004 1348.58" stroke="#F8DA78" stroke-width="2" stroke-miterlimit="10"/>
<path d="M206.093 1475.34C206.093 1475.34 191.964 1484.85 179.631 1478.9C167.298 1472.95 161.186 1466.18 152.836 1465.94C159.432 1460.81 160.39 1451.75 166.854 1439.68C173.308 1427.6 190.331 1426.96 190.331 1426.96" stroke="#F8DA78" stroke-width="2" stroke-miterlimit="10"/>
<path d="M298.146 1505.16C298.146 1505.16 304.015 1521.14 317.488 1523.56C330.961 1525.97 339.885 1524.07 346.793 1528.77C344.454 1520.76 348.992 1512.85 350.837 1499.29C352.683 1485.72 339.27 1475.22 339.27 1475.22" stroke="#F8DA78" stroke-width="2" stroke-miterlimit="10"/>
<path d="M298.014 1348.58C298.014 1348.58 302.663 1332.19 293.184 1322.32C283.704 1312.45 275.375 1308.74 272.541 1300.88C269.727 1308.75 261.397 1312.47 251.938 1322.36C242.469 1332.25 247.148 1348.62 247.148 1348.62" stroke="#F8DA78" stroke-width="2" stroke-miterlimit="10"/>
<path d="M247.28 1505.2C247.28 1505.2 242.631 1521.58 252.11 1531.46C261.59 1541.33 269.92 1545.04 272.753 1552.9C275.567 1545.03 283.897 1541.31 293.356 1531.42C302.825 1521.52 298.146 1505.16 298.146 1505.16" stroke="#F8DA78" stroke-width="2" stroke-miterlimit="10"/>
<path d="M206.094 1475.34C206.094 1475.34 192.702 1485.86 194.578 1499.42C196.443 1512.98 201.002 1520.88 198.672 1528.9C205.57 1524.19 214.495 1526.06 227.968 1523.63C241.441 1521.19 247.279 1505.2 247.279 1505.2" stroke="#F8DA78" stroke-width="2" stroke-miterlimit="10"/>
<path d="M206.003 1378.56C206.003 1378.56 191.854 1369.08 179.541 1375.05C167.218 1381.02 161.117 1387.8 152.767 1388.06C159.372 1393.17 160.35 1402.24 166.824 1414.29C173.309 1426.35 190.321 1426.96 190.321 1426.96" stroke="#F8DA78" stroke-width="2" stroke-miterlimit="10"/>
<path d="M399.383 1426.78C399.383 1426.78 425.582 1425.79 435.526 1407.2C445.469 1388.62 446.942 1374.66 457.107 1366.77C444.249 1366.39 434.84 1355.97 415.851 1346.82C396.872 1337.66 375.109 1352.3 375.109 1352.3" stroke="#F8DA78" stroke-width="2" stroke-miterlimit="10"/>
<path d="M375.24 1501.28C375.24 1501.28 397.022 1515.89 415.991 1506.69C434.96 1497.5 444.359 1487.06 457.207 1486.66C447.031 1478.79 445.529 1464.84 435.555 1446.27C425.581 1427.71 399.372 1426.77 399.372 1426.77" stroke="#F8DA78" stroke-width="2" stroke-miterlimit="10"/>
<path d="M233.371 1306.39C233.371 1306.39 224.335 1281.77 203.591 1278.06C182.847 1274.35 169.112 1277.26 158.473 1270.03C162.083 1282.37 155.085 1294.55 152.241 1315.43C149.397 1336.32 170.04 1352.48 170.04 1352.48" stroke="#F8DA78" stroke-width="2" stroke-miterlimit="10"/>
<path d="M375.1 1352.3C375.1 1352.3 395.712 1336.1 392.838 1315.22C389.954 1294.34 382.945 1282.18 386.525 1269.83C375.896 1277.08 362.161 1274.18 341.417 1277.94C320.673 1281.69 311.688 1306.31 311.688 1306.31" stroke="#F8DA78" stroke-width="2" stroke-miterlimit="10"/>
<path d="M170.181 1501.47C170.181 1501.47 148.429 1516.12 129.44 1506.96C110.461 1497.8 101.042 1487.39 88.184 1487C98.3492 1479.12 99.8215 1465.16 109.765 1446.57C119.708 1427.99 145.908 1427 145.908 1427" stroke="#F8DA78" stroke-width="2" stroke-miterlimit="10"/>
<path d="M311.909 1547.39C311.909 1547.39 320.945 1572.01 341.689 1575.72C362.433 1579.43 376.168 1576.52 386.807 1583.75C383.197 1571.4 390.195 1559.23 393.039 1538.34C395.883 1517.46 375.24 1501.29 375.24 1501.29" stroke="#F8DA78" stroke-width="2" stroke-miterlimit="10"/>
<path d="M311.698 1306.33C311.698 1306.33 318.858 1281.1 304.256 1265.9C289.653 1250.7 276.826 1244.98 272.469 1232.88C268.133 1244.99 255.315 1250.72 240.743 1265.95C226.171 1281.17 233.371 1306.39 233.371 1306.39" stroke="#F8DA78" stroke-width="2" stroke-miterlimit="10"/>
<path d="M170.181 1501.49C170.181 1501.49 149.568 1517.69 152.442 1538.57C155.326 1559.44 162.335 1571.6 158.755 1583.96C169.384 1576.71 183.119 1579.6 203.863 1575.85C224.607 1572.1 233.592 1547.47 233.592 1547.47" stroke="#F8DA78" stroke-width="2" stroke-miterlimit="10"/>
<path d="M170.04 1352.49C170.04 1352.49 148.258 1337.89 129.299 1347.09C110.33 1356.27 100.931 1366.71 88.0835 1367.12C98.2588 1374.98 99.7614 1388.94 109.735 1407.51C119.709 1426.07 145.918 1427.01 145.918 1427.01" stroke="#F8DA78" stroke-width="2" stroke-miterlimit="10"/>
<path d="M405.456 1426.78C405.456 1426.78 432.916 1425.74 443.333 1406.26C453.751 1386.79 455.294 1372.16 465.943 1363.9C452.47 1363.5 442.607 1352.58 422.71 1342.99C402.814 1333.39 380.023 1348.74 380.023 1348.74" stroke="#F8DA78" stroke-width="2" stroke-miterlimit="10"/>
<path d="M380.163 1504.85C380.163 1504.85 402.984 1520.15 422.861 1510.52C442.738 1500.89 452.58 1489.96 466.053 1489.53C455.394 1481.3 453.82 1466.66 443.363 1447.21C432.905 1427.76 405.445 1426.77 405.445 1426.77" stroke="#F8DA78" stroke-width="2" stroke-miterlimit="10"/>
<path d="M231.498 1300.62C231.498 1300.62 222.029 1274.82 200.286 1270.93C178.544 1267.03 164.154 1270.09 153.01 1262.52C156.792 1275.46 149.46 1288.21 146.485 1310.1C143.51 1331.98 165.142 1348.92 165.142 1348.92" stroke="#F8DA78" stroke-width="2" stroke-miterlimit="10"/>
<path d="M380.023 1348.72C380.023 1348.72 401.624 1331.74 398.609 1309.86C395.593 1287.98 388.242 1275.24 391.993 1262.3C380.86 1269.89 366.459 1266.86 344.727 1270.8C322.995 1274.73 313.566 1300.54 313.566 1300.54" stroke="#F8DA78" stroke-width="2" stroke-miterlimit="10"/>
<path d="M165.262 1505.05C165.262 1505.05 142.471 1520.38 122.574 1510.79C102.678 1501.19 92.8148 1490.28 79.3419 1489.89C89.9912 1481.63 91.5341 1467 101.951 1447.52C112.369 1428.05 139.829 1427.01 139.829 1427.01" stroke="#F8DA78" stroke-width="2" stroke-miterlimit="10"/>
<path d="M313.797 1553.17C313.797 1553.17 323.267 1578.97 345.009 1582.86C366.751 1586.75 381.142 1583.7 392.285 1591.27C388.504 1578.33 395.835 1565.57 398.81 1543.69C401.785 1521.81 380.154 1504.86 380.154 1504.86" stroke="#F8DA78" stroke-width="2" stroke-miterlimit="10"/>
<path d="M313.576 1300.54C313.576 1300.54 321.079 1274.1 305.771 1258.17C290.472 1242.24 277.03 1236.26 272.461 1223.57C267.913 1236.26 254.491 1242.27 239.213 1258.22C223.935 1274.17 231.488 1300.6 231.488 1300.6" stroke="#F8DA78" stroke-width="2" stroke-miterlimit="10"/>
<path d="M165.273 1505.06C165.273 1505.06 143.672 1522.04 146.688 1543.91C149.703 1565.8 157.054 1578.53 153.303 1591.48C164.436 1583.89 178.837 1586.91 200.569 1582.98C222.301 1579.05 231.73 1553.24 231.73 1553.24" stroke="#F8DA78" stroke-width="2" stroke-miterlimit="10"/>
<path d="M165.131 1348.92C165.131 1348.92 142.31 1333.62 122.433 1343.26C102.557 1352.89 92.7144 1363.82 79.2415 1364.24C89.9008 1372.48 91.474 1387.11 101.932 1406.57C112.389 1426.02 139.849 1427.01 139.849 1427.01" stroke="#F8DA78" stroke-width="2" stroke-miterlimit="10"/>
<path d="M319.327 1359.37C282.037 1333.58 230.906 1342.91 205.123 1380.2C179.34 1417.49 188.669 1468.63 225.96 1494.41C263.25 1520.19 314.382 1510.86 340.164 1473.57C365.947 1436.28 356.618 1385.15 319.327 1359.37Z" stroke="#F8DA78" stroke-width="2" stroke-miterlimit="10"/>
<path d="M343.071 1423.06C340.951 1384.17 307.706 1354.36 268.816 1356.48C229.926 1358.6 200.118 1391.85 202.238 1430.74C204.357 1469.63 237.602 1499.44 276.492 1497.32C315.382 1495.2 345.19 1461.95 343.071 1423.06Z" stroke="#F8DA78" stroke-width="2" stroke-miterlimit="10"/>
<path d="M206.004 1378.56C206.004 1378.56 189.697 1357.55 173.158 1365.56C156.62 1373.58 144.78 1381.5 133.577 1381.85C142.451 1388.71 147.392 1402.06 156.095 1418.25C164.798 1434.43 190.322 1426.97 190.322 1426.97" stroke="#F8DA78" stroke-width="2" stroke-miterlimit="10"/>
<path d="M339.28 1475.21C339.28 1475.21 355.587 1496.23 372.125 1488.21C388.664 1480.2 400.503 1472.28 411.707 1471.93C402.833 1465.07 397.891 1451.72 389.188 1435.53C380.485 1419.34 354.961 1426.81 354.961 1426.81" stroke="#F8DA78" stroke-width="2" stroke-miterlimit="10"/>
<path d="M247.139 1348.62C247.139 1348.62 246.302 1322.03 228.21 1318.79C210.118 1315.55 195.889 1315 186.611 1308.7C189.758 1319.46 185.916 1333.17 183.435 1351.38C180.954 1369.6 206.004 1378.56 206.004 1378.56" stroke="#F8DA78" stroke-width="2" stroke-miterlimit="10"/>
<path d="M298.156 1505.16C298.156 1505.16 298.993 1531.75 317.085 1534.99C335.176 1538.22 349.406 1538.78 358.683 1545.08C355.537 1534.32 359.379 1520.61 361.86 1502.39C364.341 1484.18 339.291 1475.21 339.291 1475.21" stroke="#F8DA78" stroke-width="2" stroke-miterlimit="10"/>
<path d="M298.004 1348.58C298.004 1348.58 312.95 1326.58 300.223 1313.32C287.496 1300.07 276.303 1291.26 272.501 1280.71C268.719 1291.27 257.555 1300.1 244.839 1313.37C232.132 1326.66 247.128 1348.63 247.128 1348.63" stroke="#F8DA78" stroke-width="2" stroke-miterlimit="10"/>
<path d="M247.279 1505.21C247.279 1505.21 232.333 1527.21 245.06 1540.46C257.797 1553.71 268.981 1562.53 272.782 1573.08C276.564 1562.52 287.728 1553.68 300.444 1540.41C313.151 1527.13 298.165 1505.16 298.165 1505.16" stroke="#F8DA78" stroke-width="2" stroke-miterlimit="10"/>
<path d="M339.19 1378.44C339.19 1378.44 364.219 1369.43 361.708 1351.22C359.197 1333.02 355.325 1319.31 358.451 1308.54C349.183 1314.87 334.964 1315.44 316.873 1318.71C298.791 1321.98 298.004 1348.57 298.004 1348.57" stroke="#F8DA78" stroke-width="2" stroke-miterlimit="10"/>
<path d="M206.095 1475.34C206.095 1475.34 181.065 1484.35 183.576 1502.55C186.087 1520.76 189.959 1534.46 186.833 1545.23C196.101 1538.91 210.32 1538.33 228.412 1535.07C246.493 1531.8 247.28 1505.21 247.28 1505.21" stroke="#F8DA78" stroke-width="2" stroke-miterlimit="10"/>
<path d="M354.963 1426.81C354.963 1426.81 380.507 1434.23 389.18 1418.02C397.852 1401.82 402.774 1388.46 411.628 1381.59C400.414 1381.25 388.565 1373.36 372.016 1365.38C355.467 1357.39 339.191 1378.45 339.191 1378.45" stroke="#F8DA78" stroke-width="2" stroke-miterlimit="10"/>
<path d="M190.333 1426.97C190.333 1426.97 164.788 1419.55 156.116 1435.75C147.443 1451.96 142.522 1465.32 133.668 1472.19C144.882 1472.52 156.731 1480.42 173.28 1488.4C189.828 1496.38 206.105 1475.33 206.105 1475.33" stroke="#F8DA78" stroke-width="2" stroke-miterlimit="10"/>
<path d="M137.28 1429.54C141.717 1436.01 156.773 1426.99 156.773 1426.99C156.773 1426.99 141.707 1417.99 137.28 1424.48C136.261 1425.97 136.261 1428.05 137.28 1429.54Z" stroke="#F8DA78" stroke-width="2" stroke-miterlimit="10"/>
<path d="M154.564 1430.49C154.564 1430.49 150.48 1430.99 147.495 1432.9C145.7 1434.05 144.348 1436.09 144.389 1437.74C144.479 1441.63 150.036 1441.24 150.813 1437.64C151.367 1435.08 152.204 1432.71 154.574 1430.5L154.564 1430.49Z" stroke="#F8DA78" stroke-width="2" stroke-miterlimit="10"/>
<path d="M154.553 1423.5C154.553 1423.5 150.469 1423.01 147.474 1421.11C145.669 1419.97 144.318 1417.92 144.358 1416.28C144.439 1412.39 150.005 1412.77 150.782 1416.37C151.336 1418.92 152.184 1421.3 154.553 1423.51L154.553 1423.5Z" stroke="#F8DA78" stroke-width="2" stroke-miterlimit="10"/>
<path d="M408.016 1424.23C403.579 1417.75 388.523 1426.78 388.523 1426.78C388.523 1426.78 403.589 1435.77 408.016 1429.29C409.035 1427.8 409.035 1425.72 408.016 1424.23Z" stroke="#F8DA78" stroke-width="2" stroke-miterlimit="10"/>
<path d="M390.73 1423.28C390.73 1423.28 394.814 1422.77 397.799 1420.87C399.594 1419.72 400.946 1417.68 400.905 1416.03C400.815 1412.13 395.258 1412.53 394.482 1416.13C393.927 1418.69 393.09 1421.06 390.72 1423.27L390.73 1423.28Z" stroke="#F8DA78" stroke-width="2" stroke-miterlimit="10"/>
<path d="M390.741 1430.27C390.741 1430.27 394.826 1430.76 397.821 1432.67C399.626 1433.81 400.977 1435.85 400.937 1437.5C400.856 1441.39 395.29 1441.01 394.513 1437.41C393.958 1434.85 393.111 1432.48 390.741 1430.27Z" stroke="#F8DA78" stroke-width="2" stroke-miterlimit="10"/>
<path d="M161.572 1349.47C161.36 1357.31 178.836 1358.86 178.836 1358.86C178.836 1358.86 171.928 1342.72 164.547 1345.36C162.842 1345.97 161.622 1347.65 161.572 1349.47Z" stroke="#F8DA78" stroke-width="2" stroke-miterlimit="10"/>
<path d="M174.993 1360.39C174.993 1360.39 171.392 1358.39 167.853 1358.18C165.725 1358.05 163.426 1358.91 162.488 1360.27C160.269 1363.48 164.999 1366.42 167.752 1363.96C169.698 1362.21 171.776 1360.78 174.993 1360.39Z" stroke="#F8DA78" stroke-width="2" stroke-miterlimit="10"/>
<path d="M179.098 1354.73C179.098 1354.73 176.082 1351.93 174.781 1348.63C173.995 1346.64 174.106 1344.2 175.094 1342.88C177.454 1339.78 181.72 1343.36 180.237 1346.73C179.188 1349.12 178.472 1351.55 179.098 1354.72L179.098 1354.73Z" stroke="#F8DA78" stroke-width="2" stroke-miterlimit="10"/>
<path d="M383.724 1504.3C383.935 1496.45 366.459 1494.91 366.459 1494.91C366.459 1494.91 373.367 1511.05 380.749 1508.4C382.453 1507.8 383.673 1506.11 383.724 1504.3Z" stroke="#F8DA78" stroke-width="2" stroke-miterlimit="10"/>
<path d="M370.301 1493.38C370.301 1493.38 373.901 1495.37 377.441 1495.59C379.569 1495.72 381.868 1494.86 382.806 1493.5C385.025 1490.29 380.295 1487.35 377.542 1489.81C375.596 1491.55 373.518 1492.98 370.301 1493.38Z" stroke="#F8DA78" stroke-width="2" stroke-miterlimit="10"/>
<path d="M366.197 1499.03C366.197 1499.03 369.212 1501.84 370.513 1505.14C371.3 1507.12 371.189 1509.56 370.201 1510.88C367.841 1513.99 363.575 1510.41 365.058 1507.03C366.106 1504.64 366.822 1502.22 366.197 1499.04L366.197 1499.03Z" stroke="#F8DA78" stroke-width="2" stroke-miterlimit="10"/>
<path d="M311.954 1297.32C304.431 1299.54 308.354 1316.64 308.354 1316.64C308.354 1316.64 321.565 1305.08 316.774 1298.88C315.665 1297.45 313.689 1296.81 311.954 1297.32Z" stroke="#F8DA78" stroke-width="2" stroke-miterlimit="10"/>
<path d="M305.711 1313.47C305.711 1313.47 306.498 1309.42 305.61 1305.99C305.076 1303.92 303.553 1302.01 301.97 1301.53C298.238 1300.42 296.897 1305.83 300.084 1307.68C302.343 1308.99 304.35 1310.52 305.721 1313.45L305.711 1313.47Z" stroke="#F8DA78" stroke-width="2" stroke-miterlimit="10"/>
<path d="M312.358 1315.61C312.358 1315.61 314.092 1311.88 316.825 1309.62C318.469 1308.26 320.829 1307.61 322.382 1308.15C326.063 1309.43 323.975 1314.6 320.304 1314.23C317.703 1313.97 315.181 1314.04 312.348 1315.61L312.358 1315.61Z" stroke="#F8DA78" stroke-width="2" stroke-miterlimit="10"/>
<path d="M228.28 1298.96C223.5 1305.19 236.731 1316.71 236.731 1316.71C236.731 1316.71 240.624 1299.6 233.101 1297.39C231.366 1296.89 229.389 1297.52 228.28 1298.96Z" stroke="#F8DA78" stroke-width="2" stroke-miterlimit="10"/>
<path d="M232.727 1315.69C232.727 1315.69 230.983 1311.96 228.25 1309.71C226.606 1308.35 224.246 1307.71 222.683 1308.25C219.002 1309.54 221.1 1314.71 224.771 1314.33C227.372 1314.07 229.894 1314.13 232.727 1315.69Z" stroke="#F8DA78" stroke-width="2" stroke-miterlimit="10"/>
<path d="M239.373 1313.53C239.373 1313.53 238.587 1309.48 239.464 1306.05C239.998 1303.99 241.521 1302.07 243.094 1301.6C246.826 1300.47 248.177 1305.88 244.99 1307.74C242.731 1309.06 240.735 1310.59 239.373 1313.53Z" stroke="#F8DA78" stroke-width="2" stroke-miterlimit="10"/>
<path d="M164.698 1508.6C172.09 1511.23 178.968 1495.08 178.968 1495.08C178.968 1495.08 161.492 1496.66 161.723 1504.5C161.774 1506.31 163.004 1507.99 164.709 1508.59L164.698 1508.6Z" stroke="#F8DA78" stroke-width="2" stroke-miterlimit="10"/>
<path d="M179.23 1499.22C179.23 1499.22 176.225 1502.03 174.924 1505.32C174.137 1507.3 174.248 1509.75 175.246 1511.07C177.606 1514.16 181.872 1510.57 180.379 1507.2C179.321 1504.81 178.605 1502.39 179.22 1499.22L179.23 1499.22Z" stroke="#F8DA78" stroke-width="2" stroke-miterlimit="10"/>
<path d="M175.116 1493.56C175.116 1493.56 171.516 1495.56 167.986 1495.78C165.859 1495.91 163.559 1495.05 162.621 1493.7C160.403 1490.5 165.122 1487.54 167.876 1490C169.832 1491.74 171.909 1493.17 175.126 1493.56L175.116 1493.56Z" stroke="#F8DA78" stroke-width="2" stroke-miterlimit="10"/>
<path d="M380.597 1345.16C373.205 1342.54 366.328 1358.69 366.328 1358.69C366.328 1358.69 383.804 1357.1 383.572 1349.27C383.522 1347.46 382.291 1345.78 380.587 1345.17L380.597 1345.16Z" stroke="#F8DA78" stroke-width="2" stroke-miterlimit="10"/>
<path d="M366.065 1354.56C366.065 1354.56 369.07 1351.75 370.371 1348.46C371.157 1346.47 371.047 1344.02 370.048 1342.72C367.688 1339.62 363.423 1343.22 364.915 1346.58C365.974 1348.97 366.69 1351.39 366.075 1354.57L366.065 1354.56Z" stroke="#F8DA78" stroke-width="2" stroke-miterlimit="10"/>
<path d="M370.17 1360.21C370.17 1360.21 373.77 1358.21 377.3 1357.99C379.428 1357.86 381.727 1358.72 382.665 1360.07C384.883 1363.26 380.164 1366.23 377.411 1363.77C375.454 1362.02 373.377 1360.6 370.17 1360.21Z" stroke="#F8DA78" stroke-width="2" stroke-miterlimit="10"/>
<path d="M127.949 1380.02L95.9913 1369.68" stroke="#F8DA78" stroke-width="2" stroke-miterlimit="10"/>
<path d="M447.487 1483.51L415.529 1473.17" stroke="#F8DA78" stroke-width="2" stroke-miterlimit="10"/>
<path d="M128.029 1473.44L96.0918 1483.85" stroke="#F8DA78" stroke-width="2" stroke-miterlimit="10"/>
<path d="M447.375 1369.34L415.438 1379.75" stroke="#F8DA78" stroke-width="2" stroke-miterlimit="10"/>
<path d="M380.184 1277.04L360.468 1304.23" stroke="#F8DA78" stroke-width="2" stroke-miterlimit="10"/>
<path d="M271.564 1241.85L271.594 1275.45" stroke="#F8DA78" stroke-width="2" stroke-miterlimit="10"/>
<path d="M163.013 1277.24L182.779 1304.4" stroke="#F8DA78" stroke-width="2" stroke-miterlimit="10"/>
<path d="M114.416 1347.84C101.498 1338.48 98.6239 1320.41 107.982 1307.49C117.351 1294.58 135.412 1291.7 148.331 1301.06" stroke="#F8DA78" stroke-width="2" stroke-miterlimit="10"/>
<path d="M120.901 1343.42C111.291 1336.45 109.143 1323.01 116.121 1313.39C123.09 1303.78 136.532 1301.64 146.143 1308.61" stroke="#F8DA78" stroke-width="2" stroke-miterlimit="10"/>
<path d="M128.213 1341.02C121.386 1336.07 119.863 1326.52 124.815 1319.7C129.766 1312.87 139.306 1311.35 146.133 1316.3" stroke="#F8DA78" stroke-width="2" stroke-miterlimit="10"/>
<path d="M135.28 1340.13C130.631 1336.76 129.603 1330.27 132.971 1325.62C136.339 1320.97 142.833 1319.94 147.482 1323.31" stroke="#F8DA78" stroke-width="2" stroke-miterlimit="10"/>
<path d="M140.818 1339.27C137.934 1337.18 137.288 1333.15 139.386 1330.27C141.473 1327.38 145.507 1326.74 148.391 1328.83" stroke="#F8DA78" stroke-width="2" stroke-miterlimit="10"/>
<path d="M145.75 1341.22C143.461 1339.55 142.947 1336.35 144.61 1334.06C146.274 1331.77 149.481 1331.25 151.771 1332.92" stroke="#F8DA78" stroke-width="2" stroke-miterlimit="10"/>
<path d="M149.722 1340.93C148.573 1340.1 148.321 1338.5 149.148 1337.35C149.975 1336.2 151.578 1335.94 152.728 1336.77" stroke="#F8DA78" stroke-width="2" stroke-miterlimit="10"/>
<path d="M430.839 1505.92C443.757 1515.29 446.631 1533.35 437.273 1546.27C427.904 1559.19 409.843 1562.06 396.924 1552.71" stroke="#F8DA78" stroke-width="2" stroke-miterlimit="10"/>
<path d="M424.355 1510.35C433.965 1517.32 436.113 1530.76 429.135 1540.37C422.156 1549.98 408.724 1552.13 399.113 1545.15" stroke="#F8DA78" stroke-width="2" stroke-miterlimit="10"/>
<path d="M417.033 1512.75C423.861 1517.7 425.383 1527.24 420.432 1534.07C415.48 1540.9 405.941 1542.42 399.113 1537.47" stroke="#F8DA78" stroke-width="2" stroke-miterlimit="10"/>
<path d="M399.496 1512.55C401.785 1514.21 402.3 1517.42 400.636 1519.71C398.972 1522 395.765 1522.51 393.476 1520.85" stroke="#F8DA78" stroke-width="2" stroke-miterlimit="10"/>
<path d="M191.088 1269.95C186.146 1254.78 194.436 1238.47 209.603 1233.52C224.77 1228.58 241.077 1236.87 246.028 1252.04" stroke="#F8DA78" stroke-width="2" stroke-miterlimit="10"/>
<path d="M198.932 1270.17C195.252 1258.89 201.423 1246.74 212.708 1243.07C223.993 1239.39 236.134 1245.56 239.805 1256.85" stroke="#F8DA78" stroke-width="2" stroke-miterlimit="10"/>
<path d="M206.255 1272.53C203.643 1264.51 208.02 1255.9 216.037 1253.29C224.054 1250.68 232.666 1255.05 235.278 1263.07" stroke="#F8DA78" stroke-width="2" stroke-miterlimit="10"/>
<path d="M212.498 1275.96C210.723 1270.5 213.698 1264.63 219.153 1262.86C224.609 1261.08 230.478 1264.06 232.253 1269.52" stroke="#F8DA78" stroke-width="2" stroke-miterlimit="10"/>
<path d="M217.489 1278.53C216.39 1275.14 218.235 1271.5 221.624 1270.4C225.012 1269.3 228.653 1271.15 229.752 1274.54" stroke="#F8DA78" stroke-width="2" stroke-miterlimit="10"/>
<path d="M220.333 1283C219.456 1280.31 220.928 1277.41 223.621 1276.53C226.314 1275.66 229.208 1277.13 230.085 1279.82" stroke="#F8DA78" stroke-width="2" stroke-miterlimit="10"/>
<path d="M223.712 1285.1C223.268 1283.75 224.004 1282.3 225.355 1281.86C226.707 1281.42 228.149 1282.15 228.593 1283.5" stroke="#F8DA78" stroke-width="2" stroke-miterlimit="10"/>
<path d="M298.901 1251.99C303.812 1236.81 320.109 1228.49 335.286 1233.4C350.463 1238.32 358.783 1254.61 353.872 1269.79" stroke="#F8DA78" stroke-width="2" stroke-miterlimit="10"/>
<path d="M305.114 1256.79C308.774 1245.49 320.896 1239.3 332.19 1242.96C343.485 1246.62 349.677 1258.75 346.016 1270.04" stroke="#F8DA78" stroke-width="2" stroke-miterlimit="10"/>
<path d="M309.651 1263C312.253 1254.98 320.855 1250.59 328.872 1253.18C336.89 1255.78 341.287 1264.38 338.695 1272.4" stroke="#F8DA78" stroke-width="2" stroke-miterlimit="10"/>
<path d="M312.686 1269.45C314.451 1263.99 320.31 1260.99 325.776 1262.76C331.242 1264.52 334.227 1270.38 332.462 1275.85" stroke="#F8DA78" stroke-width="2" stroke-miterlimit="10"/>
<path d="M315.208 1274.46C316.307 1271.07 319.938 1269.21 323.326 1270.31C326.714 1271.41 328.57 1275.04 327.471 1278.43" stroke="#F8DA78" stroke-width="2" stroke-miterlimit="10"/>
<path d="M314.885 1279.74C315.763 1277.05 318.647 1275.57 321.349 1276.44C324.042 1277.32 325.524 1280.21 324.647 1282.91" stroke="#F8DA78" stroke-width="2" stroke-miterlimit="10"/>
<path d="M316.387 1283.43C316.82 1282.08 318.273 1281.35 319.614 1281.78C320.955 1282.21 321.701 1283.66 321.268 1285.01" stroke="#F8DA78" stroke-width="2" stroke-miterlimit="10"/>
<path d="M396.681 1300.84C409.579 1291.45 427.651 1294.29 437.039 1307.19C446.428 1320.09 443.584 1338.16 430.686 1347.55" stroke="#F8DA78" stroke-width="2" stroke-miterlimit="10"/>
<path d="M398.889 1308.37C408.489 1301.38 421.932 1303.5 428.92 1313.1C435.909 1322.7 433.791 1336.15 424.191 1343.13" stroke="#F8DA78" stroke-width="2" stroke-miterlimit="10"/>
<path d="M398.909 1316.07C405.726 1311.11 415.266 1312.61 420.228 1319.43C425.189 1326.24 423.687 1335.79 416.87 1340.74" stroke="#F8DA78" stroke-width="2" stroke-miterlimit="10"/>
<path d="M397.578 1323.07C402.217 1319.69 408.721 1320.72 412.1 1325.36C415.478 1329.99 414.449 1336.5 409.81 1339.88" stroke="#F8DA78" stroke-width="2" stroke-miterlimit="10"/>
<path d="M396.67 1328.6C399.544 1326.5 403.578 1327.14 405.675 1330.02C407.773 1332.9 407.138 1336.93 404.254 1339.03" stroke="#F8DA78" stroke-width="2" stroke-miterlimit="10"/>
<path d="M393.302 1332.69C395.591 1331.02 398.798 1331.53 400.462 1333.82C402.126 1336.11 401.622 1339.31 399.333 1340.98" stroke="#F8DA78" stroke-width="2" stroke-miterlimit="10"/>
<path d="M392.344 1336.55C393.494 1335.71 395.097 1335.96 395.924 1337.11C396.761 1338.26 396.509 1339.87 395.359 1340.69" stroke="#F8DA78" stroke-width="2" stroke-miterlimit="10"/>
<path d="M148.572 1552.93C135.674 1562.32 117.602 1559.47 108.213 1546.57C98.8246 1533.68 101.668 1515.6 114.567 1506.21" stroke="#F8DA78" stroke-width="2" stroke-miterlimit="10"/>
<path d="M146.363 1545.39C136.762 1552.38 123.32 1550.27 116.331 1540.66C109.342 1531.06 111.46 1517.62 121.061 1510.63" stroke="#F8DA78" stroke-width="2" stroke-miterlimit="10"/>
<path d="M151.95 1521.08C149.661 1522.74 146.454 1522.24 144.79 1519.95C143.126 1517.66 143.63 1514.45 145.919 1512.79" stroke="#F8DA78" stroke-width="2" stroke-miterlimit="10"/>
<path d="M447.073 1397.82C463.026 1397.81 475.975 1410.73 475.985 1426.69C475.995 1442.64 463.077 1455.59 447.123 1455.6" stroke="#F8DA78" stroke-width="2" stroke-miterlimit="10"/>
<path d="M444.431 1405.23C456.3 1405.22 465.941 1414.83 465.951 1426.71C465.961 1438.58 456.351 1448.22 444.471 1448.23" stroke="#F8DA78" stroke-width="2" stroke-miterlimit="10"/>
<path d="M439.923 1411.46C448.353 1411.46 455.191 1418.28 455.201 1426.71C455.201 1435.14 448.384 1441.98 439.953 1441.99" stroke="#F8DA78" stroke-width="2" stroke-miterlimit="10"/>
<path d="M434.729 1416.34C440.467 1416.34 445.126 1420.98 445.126 1426.72C445.126 1432.46 440.487 1437.11 434.749 1437.11" stroke="#F8DA78" stroke-width="2" stroke-miterlimit="10"/>
<path d="M430.745 1420.28C434.305 1420.28 437.199 1423.17 437.199 1426.73C437.199 1430.29 434.315 1433.18 430.755 1433.18" stroke="#F8DA78" stroke-width="2" stroke-miterlimit="10"/>
<path d="M425.623 1421.61C428.457 1421.61 430.756 1423.9 430.756 1426.74C430.756 1429.57 428.467 1431.87 425.633 1431.87" stroke="#F8DA78" stroke-width="2" stroke-miterlimit="10"/>
<path d="M422.577 1424.18C423.989 1424.18 425.139 1425.33 425.149 1426.74C425.149 1428.15 423.999 1429.3 422.587 1429.31" stroke="#F8DA78" stroke-width="2" stroke-miterlimit="10"/>
<path d="M98.1682 1455.93C82.2145 1455.94 69.2659 1443.02 69.2559 1427.07C69.2458 1411.12 82.1641 1398.17 98.1178 1398.16" stroke="#F8DA78" stroke-width="2" stroke-miterlimit="10"/>
<path d="M100.81 1448.54C88.9409 1448.55 79.3001 1438.94 79.29 1427.06C79.28 1415.19 88.8905 1405.55 100.77 1405.54" stroke="#F8DA78" stroke-width="2" stroke-miterlimit="10"/>
<path d="M105.319 1442.31C96.888 1442.31 90.0507 1435.49 90.0406 1427.06C90.0406 1418.63 96.8578 1411.79 105.288 1411.78" stroke="#F8DA78" stroke-width="2" stroke-miterlimit="10"/>
<path d="M110.512 1437.43C104.774 1437.43 100.115 1432.79 100.115 1427.05C100.115 1421.31 104.754 1416.65 110.492 1416.65" stroke="#F8DA78" stroke-width="2" stroke-miterlimit="10"/>
<path d="M114.494 1433.48C110.934 1433.48 108.04 1430.6 108.04 1427.04C108.04 1423.48 110.924 1420.59 114.484 1420.59" stroke="#F8DA78" stroke-width="2" stroke-miterlimit="10"/>
<path d="M119.629 1432.15C116.796 1432.15 114.496 1429.86 114.496 1427.03C114.496 1424.2 116.786 1421.9 119.619 1421.9" stroke="#F8DA78" stroke-width="2" stroke-miterlimit="10"/>
<path d="M122.673 1429.59C121.261 1429.59 120.112 1428.44 120.102 1427.03C120.091 1425.62 121.251 1424.47 122.663 1424.46" stroke="#F8DA78" stroke-width="2" stroke-miterlimit="10"/>
<path d="M105.108 1352.97C105.108 1352.97 79.5943 1331.1 97.6658 1299.85C105.915 1285.58 101.548 1276 94.822 1271.95C85.9677 1266.6 74.8546 1273.65 73.6747 1282.46C71.7586 1296.84 86.9056 1298.62 90.7781 1294.88" stroke="#F8DA78" stroke-width="2" stroke-miterlimit="10"/>
<path d="M439.936 1500.74C439.936 1500.74 465.449 1522.6 447.378 1553.86C439.129 1568.13 443.495 1577.71 450.222 1581.76C459.076 1587.1 470.189 1580.06 471.369 1571.24C473.285 1556.87 458.138 1555.09 454.266 1558.83" stroke="#F8DA78" stroke-width="2" stroke-miterlimit="10"/>
<path d="M93.6506 1465.48C93.6506 1465.48 60.1598 1462.79 56.4084 1426.89C54.694 1410.49 45.5373 1405.32 37.7016 1405.98C27.3952 1406.86 22.5445 1419.1 26.78 1426.92C33.6779 1439.68 46.9794 1432.2 47.9172 1426.92" stroke="#F8DA78" stroke-width="2" stroke-miterlimit="10"/>
<path d="M451.389 1388.22C451.389 1388.22 484.88 1390.92 488.631 1426.82C490.346 1443.22 499.502 1448.39 507.338 1447.72C517.645 1446.85 522.495 1434.6 518.26 1426.79C511.362 1414.03 498.06 1421.5 497.122 1426.79" stroke="#F8DA78" stroke-width="2" stroke-miterlimit="10"/>
<path d="M394.523 1290.46C394.523 1290.46 423.203 1272.95 447.336 1299.79C458.358 1312.04 468.816 1310.85 474.755 1305.71C482.581 1298.93 479.304 1286.19 471.286 1282.35C458.207 1276.09 451.833 1289.95 454.193 1294.79" stroke="#F8DA78" stroke-width="2" stroke-miterlimit="10"/>
<path d="M291.057 1244.8C291.057 1244.8 303.966 1213.78 339.271 1221.3C355.397 1224.74 363.152 1217.63 364.937 1209.98C367.286 1199.9 357.141 1191.51 348.398 1193.11C334.138 1195.74 337.123 1210.69 341.873 1213.22" stroke="#F8DA78" stroke-width="2" stroke-miterlimit="10"/>
<path d="M180.508 1268.67C180.508 1268.67 172.723 1235.98 205.7 1221.32C220.766 1214.62 222.863 1204.32 219.808 1197.08C215.784 1187.55 202.644 1186.72 196.523 1193.15C186.529 1203.66 197.733 1214 203.067 1213.25" stroke="#F8DA78" stroke-width="2" stroke-miterlimit="10"/>
<path d="M91.0274 1323.54C90.8862 1323.62 90.745 1323.7 90.6038 1323.78C67.6716 1336.79 53.8255 1349.29 35.865 1349.85C52.5549 1362.75 55.0054 1385.64 71.3726 1416.1" stroke="#F8DA78" stroke-width="2" stroke-miterlimit="10"/>
<path d="M454.202 1530.22C454.343 1530.14 454.484 1530.06 454.625 1529.97C477.558 1516.97 491.404 1504.47 509.364 1503.91C492.674 1491.01 490.224 1468.11 473.857 1437.66" stroke="#F8DA78" stroke-width="2" stroke-miterlimit="10"/>
<path d="M186.447 1236.54C186.286 1236.52 186.125 1236.5 185.963 1236.49C159.764 1233.53 141.218 1235.5 126.354 1225.41C132.273 1245.66 120.807 1265.61 116.148 1299.87" stroke="#F8DA78" stroke-width="2" stroke-miterlimit="10"/>
<path d="M314.783 1222.25C314.662 1222.14 314.541 1222.03 314.42 1221.92C294.957 1204.13 278.801 1194.82 272.71 1177.92C265.601 1197.77 244.585 1207.18 220.684 1232.16" stroke="#F8DA78" stroke-width="2" stroke-miterlimit="10"/>
<path d="M427.013 1286.12C426.983 1285.95 426.953 1285.79 426.912 1285.64C421.628 1259.8 414.024 1242.78 419.026 1225.53C401.6 1237.42 379.071 1232.68 345.056 1238.83" stroke="#F8DA78" stroke-width="2" stroke-miterlimit="10"/>
<path d="M480.26 1403.75C480.33 1403.6 480.391 1403.46 480.461 1403.31C491.373 1379.31 495.225 1361.06 509.424 1350.04C488.337 1349.42 472.898 1332.33 441.757 1317.33" stroke="#F8DA78" stroke-width="2" stroke-miterlimit="10"/>
<path d="M64.969 1450.01C64.8984 1450.16 64.8379 1450.31 64.7673 1450.46C53.8559 1474.46 50.0036 1492.71 35.8046 1503.72C56.8913 1504.35 72.3307 1521.43 103.472 1536.45" stroke="#F8DA78" stroke-width="2" stroke-miterlimit="10"/>
<path d="M73.6332 1313.64C73.4819 1313.73 73.3206 1313.81 73.1693 1313.9C48.0387 1328.15 32.8715 1341.84 13.1865 1342.47C31.4799 1356.61 34.1623 1381.69 52.0926 1415.06" stroke="#F8DA78" stroke-width="2" stroke-miterlimit="10"/>
<path d="M471.599 1540.12C471.75 1540.03 471.911 1539.95 472.063 1539.86C497.193 1525.61 512.361 1511.91 532.046 1511.29C513.752 1497.15 511.07 1472.07 493.139 1438.7" stroke="#F8DA78" stroke-width="2" stroke-miterlimit="10"/>
<path d="M178.2 1218.31C178.018 1218.29 177.847 1218.27 177.665 1218.24C148.955 1215.01 128.634 1217.17 112.348 1206.1C118.832 1228.29 106.267 1250.16 101.164 1287.7" stroke="#F8DA78" stroke-width="2" stroke-miterlimit="10"/>
<path d="M318.828 1202.64C318.697 1202.52 318.566 1202.4 318.435 1202.28C297.116 1182.79 279.398 1172.59 272.732 1154.07C264.937 1175.83 241.914 1186.14 215.724 1213.51" stroke="#F8DA78" stroke-width="2" stroke-miterlimit="10"/>
<path d="M441.799 1272.62C441.759 1272.45 441.729 1272.27 441.688 1272.1C435.9 1243.79 427.56 1225.13 433.056 1206.22C413.966 1219.25 389.269 1214.06 351.997 1220.8" stroke="#F8DA78" stroke-width="2" stroke-miterlimit="10"/>
<path d="M500.158 1401.54C500.229 1401.37 500.309 1401.21 500.38 1401.05C512.33 1374.75 516.556 1354.75 532.116 1342.68C509.012 1341.99 492.091 1323.28 457.975 1306.83" stroke="#F8DA78" stroke-width="2" stroke-miterlimit="10"/>
<path d="M45.0737 1452.23C45.0031 1452.39 44.9224 1452.55 44.8518 1452.72C32.9017 1479.02 28.6763 1499.01 13.1158 1511.09C36.2195 1511.77 53.1413 1530.49 87.2573 1546.94" stroke="#F8DA78" stroke-width="2" stroke-miterlimit="10"/>
</g>
</g>
</svg>
